<svg width="70" height="70" viewBox="0 0 70 70" fill="none" xmlns="http://www.w3.org/2000/svg">
<g clip-path="url(#clip0_611_1647)">
<path d="M32.9804 51.8013C32.4539 51.4149 31.713 51.5277 31.3261 52.0545L31.18 52.2534C30.7935 52.7798 30.906 53.5196 31.4318 53.9069C31.643 54.0626 31.8891 54.1378 32.1329 54.1378C32.4956 54.1378 32.8537 53.9716 33.0855 53.6574L33.2339 53.4557C33.6207 52.9289 33.5072 52.1882 32.9804 51.8013Z" fill="#DC3545"/>
<path d="M33.2896 63.0603L30.2458 57.5257L33.0877 53.6552C33.4747 53.1284 33.3611 52.3876 32.8342 52.0007C32.3074 51.6137 31.5667 51.7273 31.1799 52.2543L27.8907 56.7339C27.618 57.1053 27.5857 57.601 27.8076 58.0047L31.2157 64.201V64.2008C31.4313 64.5925 31.8361 64.8142 32.2538 64.8142C32.4467 64.814 32.6422 64.7669 32.8231 64.6675C33.3957 64.3526 33.6046 63.633 33.2896 63.0603Z" fill="#DC3545"/>
<path d="M42.1102 56.734L38.8344 52.2726C38.5627 51.9027 38.1024 51.7229 37.6521 51.8121C37.2018 51.9005 36.8435 52.2415 36.7322 52.6865C36.6468 53.0283 36.718 53.3901 36.9265 53.6741L39.7544 57.5257L36.7314 63.0228C36.6354 63.1974 36.585 63.3942 36.585 63.5937C36.585 64.1339 36.9508 64.6056 37.474 64.74C37.5721 64.7653 37.6709 64.7774 37.7685 64.7774C38.1922 64.7774 38.5938 64.5488 38.8056 64.1642L42.1932 58.005C42.4153 57.601 42.3828 57.1053 42.1102 56.734Z" fill="#DC3545"/>
<path d="M43.9852 38.1353C43.596 37.9309 43.1254 37.9588 42.7632 38.2085C42.0592 38.6934 41.406 39.2072 40.8217 39.7353C37.6366 42.6146 34.6106 42.225 34.4921 42.208C34.4207 42.1968 34.3481 42.1916 34.2764 42.194C33.0176 42.2262 30.7481 41.076 28.3471 39.1904C27.9799 38.902 27.6034 38.6272 27.2274 38.3735C26.8648 38.1285 26.3963 38.1037 26.0099 38.3092C25.6234 38.5146 25.3818 38.9165 25.3818 39.3543V43.4143C25.3818 43.7733 25.5452 44.1127 25.8252 44.3374C25.8583 44.3641 25.8928 44.3887 25.9283 44.4114L34.3203 50.0191C34.3216 50.0199 34.3228 50.021 34.3242 50.0219L34.3464 50.0367C34.5439 50.1674 34.7716 50.2334 35 50.2334C35.1922 50.2334 35.3845 50.1868 35.5602 50.0929C35.5972 50.0731 35.6328 50.0513 35.6669 50.0281C35.6709 50.0255 35.6749 50.0229 35.679 50.0202C35.6836 50.0171 35.6883 50.014 35.6929 50.0109L44.065 44.4165C44.0987 44.3951 44.1315 44.3722 44.1631 44.3475C44.4503 44.1233 44.6182 43.7792 44.6182 43.4147V39.1831C44.6182 38.7432 44.3746 38.34 43.9852 38.1353ZM42.251 42.7813L34.9999 47.6266L27.7489 42.7812V41.7048C29.5144 42.9879 32.1117 44.5617 34.2288 44.5615C34.2332 44.5615 34.2381 44.5615 34.2426 44.5615C34.9534 44.6401 38.5782 44.8538 42.2513 41.6316V42.7813H42.251Z" fill="#DC3545"/>
<path d="M36.168 48.8556C36.0899 48.3862 35.7381 48.0093 35.2752 47.8988C34.812 47.789 34.3283 47.9661 34.0466 48.3497L31.3263 52.0549C30.9394 52.5818 31.0529 53.3226 31.58 53.7094C31.7909 53.8644 32.0362 53.939 32.2794 53.939C32.6434 53.939 33.0024 53.7716 33.2345 53.4556L35.9406 49.7699C36.0946 49.5687 36.1842 49.3182 36.1842 49.0505C36.1841 48.9854 36.1786 48.9198 36.168 48.8556Z" fill="#DC3545"/>
<path d="M53.0309 10.7012C53.0074 10.5158 52.453 6.51456 48.6867 4.93614C48.796 4.23341 48.7846 3.33024 48.3384 2.45155C47.7388 1.27057 46.5555 0.500977 44.8212 0.163828C44.7468 0.149336 44.6714 0.14209 44.5955 0.14209H28.7105C22.2604 0.14209 17.0127 5.38964 17.0127 11.84V18.0732C17.0127 19.6971 17.5663 21.2808 18.5712 22.532C19.0694 23.1524 19.683 24.2359 19.7755 25.8741C19.8116 26.5137 20.347 27.0079 20.9905 26.9902C21.6309 26.9721 22.1406 26.4477 22.1406 25.8071V17.6805C22.9442 14.357 25.687 13.7102 26.1585 13.6229H31.2967C31.9011 13.6229 32.4954 13.5306 33.0635 13.3485C34.0405 13.0351 35.5905 12.4584 36.719 12.0298C37.4739 11.7428 38.3098 11.7323 39.0723 12.0003L44.5731 13.9313C47.323 14.9458 47.8139 17.3599 47.8747 17.7392V27.4923C47.8747 28.1118 48.3523 28.6257 48.9699 28.6718C49 28.674 49.0296 28.6752 49.0591 28.6752C49.6396 28.6751 50.1408 28.2497 50.2287 27.6669C50.2334 27.6364 50.7059 24.5839 52.2297 22.1399C52.7599 21.2891 53.0403 20.3191 53.0403 19.3347V10.8506C53.0403 10.8007 53.0372 10.7508 53.0309 10.7012ZM50.6732 19.3342C50.6732 19.8629 50.524 20.3873 50.2416 20.8537V17.6583C50.2416 17.6155 50.2392 17.5729 50.2346 17.5304C50.216 17.3586 49.727 13.3027 45.3813 11.7063C45.376 11.7044 45.3707 11.7025 45.3653 11.7006L39.8563 9.76656C39.2351 9.54849 38.5853 9.43967 37.9359 9.43967C37.2375 9.43967 36.5396 9.56559 35.8783 9.81715C34.2984 10.4173 33.0749 10.8591 32.3405 11.0945C32.0065 11.2016 31.6553 11.256 31.2966 11.256H26.0628C26.0121 11.256 25.9612 11.2593 25.9108 11.2657C25.7105 11.2917 20.99 11.963 19.802 17.2875C19.7832 17.3721 19.7736 17.4585 19.7736 17.5452V19.981C19.5159 19.3854 19.3794 18.7349 19.3794 18.0733V11.8403C19.3794 6.69531 23.5654 2.50938 28.7102 2.50938H44.476C45.1287 2.64842 45.9219 2.93376 46.2229 3.51426C46.5913 4.22479 46.1716 5.20315 46.1712 5.20397C46.0198 5.52595 46.0216 5.89878 46.1754 6.21939C46.3294 6.53999 46.6195 6.77433 46.9654 6.85759C49.9784 7.58289 50.5929 10.4727 50.6731 10.9402L50.6732 19.3342Z" fill="#DC3545"/>
<path d="M50.2346 17.5306C50.216 17.3588 49.7269 13.3029 45.3813 11.7065C45.376 11.7046 45.3707 11.7027 45.3653 11.7008L39.8562 9.76676C38.567 9.31422 37.1544 9.33226 35.8781 9.81707C34.2982 10.4173 33.0747 10.859 32.3404 11.0946C32.0064 11.2016 31.6551 11.2559 31.2964 11.2559H26.0626C26.0119 11.2559 25.9611 11.2592 25.9106 11.2656C25.7103 11.2916 20.9898 11.9629 19.8019 17.2874C19.783 17.372 19.7734 17.4584 19.7734 17.5451V27.7192C19.7734 27.7279 19.7736 27.7367 19.7737 27.7454C19.7815 28.0989 20.0316 36.4452 25.7984 40.2622L25.8282 40.2833C25.8529 40.3008 25.8777 40.3183 25.9035 40.3356C26.2323 40.5577 26.5625 40.7987 26.8854 41.0522C28.5654 42.3714 31.7314 44.5617 34.229 44.5617C34.2337 44.5617 34.238 44.5617 34.2428 44.5617C34.3784 44.5766 34.6206 44.5966 34.949 44.5966C36.3644 44.5966 39.3843 44.2257 42.409 41.4913C42.9167 41.0326 43.4875 40.5839 44.1063 40.1576L44.1947 40.0957C44.2236 40.0753 44.2524 40.0548 44.2822 40.0348C46.2059 38.7429 49.5374 35.4091 50.2369 27.5978C50.24 27.5628 50.2417 27.5274 50.2417 27.4921V17.6585C50.2415 17.6158 50.2391 17.5733 50.2346 17.5306ZM47.8744 27.4386C47.2295 34.4882 44.2259 37.221 42.9624 38.0696C42.9175 38.0999 42.8732 38.131 42.8289 38.1622L42.7633 38.2084C42.0593 38.6934 41.4061 39.2071 40.8217 39.7353C37.6486 42.6039 34.6325 42.2277 34.4845 42.2069C34.4158 42.1966 34.346 42.1923 34.2765 42.1942C33.0177 42.2264 30.7481 41.0762 28.3472 39.1906C27.98 38.9021 27.6035 38.6273 27.228 38.374L27.1989 38.3535C27.1705 38.3332 27.1422 38.3131 27.1088 38.291C22.4552 35.2109 22.1507 28.0029 22.1405 27.7021V17.6806C22.947 14.3449 25.7066 13.7055 26.1564 13.6229H31.2965C31.901 13.6229 32.4953 13.5306 33.0633 13.3485C34.0403 13.0352 35.5905 12.4585 36.7188 12.0299C37.4738 11.7429 38.3097 11.7324 39.0721 12.0003L44.5729 13.9314C47.3229 14.9458 47.8137 17.36 47.8745 17.7393V27.4386H47.8744Z" fill="#DC3545"/>
<path d="M36.0587 48.5213C35.8742 48.1525 35.5111 47.9062 35.1003 47.8712C34.6901 47.8373 34.2901 48.0177 34.046 48.3502L31.211 52.2114C30.8245 52.738 30.9375 53.4782 31.4637 53.8653C31.6748 54.0206 31.9205 54.0957 32.164 54.0957C32.5271 54.0957 32.8856 53.929 33.1176 53.6141L35.9527 49.7671C36.1027 49.5637 36.1836 49.3036 36.1836 49.051C36.1838 48.8674 36.1407 48.6858 36.0587 48.5213Z" fill="#DC3545"/>
<path d="M36.1345 67.577C35.6899 67.1121 34.9553 67.0873 34.4806 67.5217L34.21 67.7691C33.8049 68.1395 33.7077 68.74 33.9754 69.2193L33.9838 69.2342C34.1645 69.5581 34.4869 69.7785 34.8543 69.8295C34.9087 69.837 34.9631 69.8407 35.0172 69.8407C35.3288 69.8407 35.6305 69.7175 35.8541 69.494L36.1162 69.2316C36.571 68.7767 36.5792 68.0417 36.1345 67.577Z" fill="#DC3545"/>
<path d="M35.79 67.769L35.5194 67.5216C35.0447 67.0873 34.31 67.1121 33.8654 67.5769C33.4206 68.042 33.4288 68.7772 33.8838 69.2319L34.1463 69.4943C34.3699 69.7178 34.6715 69.8409 34.983 69.8409C35.0387 69.8409 35.0946 69.837 35.1505 69.829C35.5191 69.7763 35.8415 69.5531 36.0207 69.2266L36.0291 69.2117C36.2913 68.7332 36.1926 68.1372 35.79 67.769Z" fill="#DC3545"/>
<path d="M35.8098 67.7873L35.8083 67.7859C35.6255 67.615 35.3891 67.5024 35.1287 67.4738C34.7799 67.4358 34.4401 67.5539 34.1931 67.784L34.1895 67.7873C33.9503 68.0055 33.811 68.3125 33.804 68.6362C33.797 68.9602 33.9231 69.2726 34.1526 69.501L34.1651 69.5134C34.396 69.7429 34.6977 69.8577 34.9996 69.8577C35.3026 69.8577 35.6054 69.742 35.8363 69.5112L35.8488 69.4988C36.0773 69.27 36.2026 68.9579 36.1951 68.6347C36.188 68.3114 36.0486 68.0052 35.8098 67.7873Z" fill="#DC3545"/>
<path d="M35.3843 47.905C34.8941 47.748 34.3563 47.93 34.0578 48.3497C33.724 48.8197 33.7791 49.4603 34.1858 49.8689C34.4147 50.0989 34.7184 50.2167 35.0246 50.2167C35.2623 50.2167 35.5013 50.1456 35.7075 50.0005C36.0225 49.7788 36.2099 49.4179 36.2099 49.0326V49.0297C36.2099 48.5147 35.875 48.0615 35.3843 47.905Z" fill="#DC3545"/>
<path d="M35.9617 48.3398L35.9515 48.3261C35.6479 47.9152 35.1147 47.7459 34.6295 47.9057C34.1443 48.0655 33.8164 48.5189 33.8164 49.0297V49.0499C33.8164 49.4857 34.061 49.8828 34.4449 50.089C34.6188 50.1824 34.8108 50.2284 35.0024 50.2284C35.2336 50.2284 35.4646 50.1615 35.6631 50.0299C35.9336 49.8508 36.1189 49.5684 36.1754 49.2489C36.2318 48.9295 36.1546 48.6007 35.9617 48.3398Z" fill="#DC3545"/>
<path d="M49.079 44.6217C48.9564 44.2975 48.6978 44.0435 48.3716 43.9268L43.8338 42.3001C43.797 42.287 43.7589 42.2752 43.7209 42.2659C43.397 42.1848 43.0538 42.2443 42.7763 42.43L34.3683 48.0483C34.3661 48.0498 34.3637 48.0513 34.3614 48.0529L35.0216 49.0346L34.3466 48.0629C34.0999 48.226 33.9233 48.4761 33.8517 48.7629C33.8123 48.9204 33.8059 49.0849 33.8325 49.245C33.863 49.4279 33.936 49.6013 34.0459 49.751L40.2017 58.1347C40.4254 58.4396 40.7803 58.6179 41.1555 58.6179C41.1812 58.6179 41.207 58.6169 41.2329 58.6152C41.636 58.5886 41.9979 58.3587 42.1926 58.0044L49.009 45.6111C49.1762 45.3073 49.2018 44.9456 49.079 44.6217ZM41.0122 55.2392L36.6857 49.3466L43.5958 44.7292L46.2663 45.6866L41.0122 55.2392Z" fill="#DC3545"/>
<path d="M36.1665 48.8461C36.1109 48.5284 35.9281 48.2472 35.6601 48.0674L27.2241 42.4303C26.9556 42.2507 26.6246 42.1892 26.3092 42.2592C26.2608 42.2698 26.2132 42.2838 26.1666 42.3004L21.6288 43.9271C21.3025 44.044 21.044 44.298 20.9214 44.6221C20.7987 44.9462 20.8242 45.3077 20.9912 45.6115L27.8076 58.0048C28.0023 58.3589 28.3642 58.589 28.7674 58.6155C28.7931 58.6172 28.8189 58.618 28.8446 58.618C29.2198 58.618 29.5746 58.4397 29.7987 58.1347L33.0879 53.6551C33.0905 53.6517 33.0931 53.648 33.0957 53.6443L35.9546 49.7504C36.1454 49.4904 36.222 49.1639 36.1665 48.8461ZM31.1801 52.2537C31.1772 52.2576 31.1745 52.2614 31.1716 52.2652L28.9878 55.2395L23.7337 45.6868L26.4044 44.7295L33.3143 49.3469L31.1801 52.2537Z" fill="#DC3545"/>
<path d="M69.9412 64.8262L68.4145 55.6068C67.9333 52.7014 65.9141 50.2739 63.1448 49.2723L48.3745 43.9285C47.9191 43.7639 47.41 43.893 47.0882 44.2542C46.7664 44.6155 46.6968 45.1364 46.9128 45.5697L49.9966 51.7541L46.9706 51.8007C46.5598 51.8071 46.1815 52.0259 45.9716 52.3791C45.7616 52.7324 45.7499 53.1691 45.9405 53.5332L47.1816 55.9029L34.48 67.5223C34.467 67.5342 34.4543 67.5462 34.4418 67.5586L34.1796 67.8209C33.8081 68.1925 33.726 68.7645 33.9782 69.2255L33.9875 69.2423C34.1952 69.6217 34.5933 69.8578 35.0259 69.8578H65.6743C66.9476 69.8578 68.1499 69.301 68.9731 68.33C69.7964 67.359 70.1493 66.0818 69.9412 64.8262ZM67.1681 66.7992C66.7952 67.2388 66.2508 67.491 65.6745 67.491H38.0209L49.4521 57.0341C49.8486 56.6717 49.9511 56.0878 49.7017 55.6119L48.9295 54.1376L51.9136 54.0917C52.3203 54.0855 52.6951 53.8707 52.9066 53.5233C53.1178 53.1757 53.136 52.7442 52.9545 52.3801L50.3518 47.1607L62.3402 51.4978C64.3055 52.2088 65.7385 53.9314 66.0799 55.9933L67.6066 65.2127V65.2128C67.7007 65.7814 67.541 66.3595 67.1681 66.7992Z" fill="#DC3545"/>
<path d="M35.8202 67.797L35.8064 67.7846C35.338 67.3605 34.6186 67.3793 34.1729 67.8275L34.1606 67.8399C33.8236 68.179 33.7237 68.6876 33.9071 69.1289C34.0907 69.5704 34.522 69.8579 34.9999 69.8579H35.0259C35.5152 69.8579 35.9542 69.5566 36.13 69.1001C36.3063 68.6433 36.1831 68.1254 35.8202 67.797Z" fill="#DC3545"/>
<path d="M35.7833 67.7628C35.5147 67.5209 35.1503 67.415 34.7935 67.4758C34.437 67.5361 34.1278 67.7564 33.9539 68.0733L33.9457 68.0882C33.6962 68.543 33.772 69.1074 34.1328 69.4804L34.1371 69.4848C34.3689 69.7244 34.6779 69.8453 34.9877 69.8453C35.2728 69.8453 35.5587 69.7428 35.7851 69.5359L35.7975 69.5247C35.905 69.4268 35.9936 69.3095 36.0587 69.1793C36.297 68.7031 36.1791 68.1188 35.7833 67.7628Z" fill="#DC3545"/>
<path d="M35.8344 67.8349L35.8294 67.8298C35.8263 67.8267 35.823 67.8234 35.82 67.8204L35.5575 67.5582C35.5452 67.5457 35.5325 67.5335 35.5196 67.5219L22.818 55.9026L24.0593 53.5328C24.25 53.1689 24.2381 52.7321 24.0283 52.3788C23.8183 52.0256 23.4401 51.8068 23.0293 51.8003L20.003 51.7537L23.0868 45.5694C23.3028 45.1362 23.2331 44.6152 22.9114 44.2539C22.5897 43.8925 22.08 43.7633 21.6251 43.9282L6.85498 49.272C4.0856 50.2735 2.06626 52.7009 1.58515 55.6064L0.0584065 64.8258C-0.149543 66.082 0.203465 67.359 1.02679 68.3298C1.85025 69.3006 3.05269 69.8575 4.32554 69.8575H35.0001C35.4794 69.8575 35.9113 69.5683 36.094 69.1254C36.2768 68.6824 36.1742 68.1727 35.8344 67.8349ZM4.32568 67.4906C3.74927 67.4906 3.20486 67.2385 2.83216 66.7988C2.45947 66.3593 2.29978 65.7811 2.39384 65.2123L3.92058 55.993C4.26197 53.9308 5.69492 52.2084 7.66026 51.4975L19.6485 47.1604L17.0459 52.3795C16.8643 52.7436 16.8824 53.175 17.0939 53.5227C17.3051 53.8703 17.6801 54.0849 18.0869 54.0911L21.0709 54.1371L20.2987 55.6114C20.0495 56.0872 20.152 56.6712 20.5482 57.0337L31.9794 67.4906H4.32568Z" fill="#DC3545"/>
<path d="M39.0286 53.26C39.1141 52.9182 39.0428 52.5563 38.8343 52.2724L35.9542 48.35C35.6515 47.9377 35.1178 47.7738 34.6319 47.9332C34.3695 48.0192 34.1534 48.1928 34.0095 48.4147L31.182 52.2512C31.1416 52.3059 31.1056 52.3646 31.0751 52.4256C30.8814 52.8132 30.9149 53.2756 31.1623 53.6312L32.3664 55.3603L31.0837 63.4454C31.0426 63.7051 31.0891 63.9709 31.2157 64.2012L33.9634 69.1971C34.1714 69.5754 34.569 69.8103 35.0005 69.8103C35.4321 69.8103 35.8295 69.5754 36.0375 69.1971L38.8058 64.1642C38.9017 63.9894 38.9522 63.7933 38.9522 63.5939V63.5932C38.9522 63.5312 38.9471 63.4691 38.9376 63.4077L37.6607 55.3604L38.8518 53.6503C38.9336 53.5319 38.9939 53.3995 39.0286 53.26ZM35.0005 66.1711L33.4849 63.4158L34.7788 55.2606C34.8268 54.9585 34.7559 54.6498 34.5811 54.3989L33.5894 52.9745L35.0039 51.0553L36.4258 52.9918L35.4459 54.3989C35.2712 54.6496 35.2003 54.9585 35.2482 55.2606L36.5362 63.3786L35.0005 66.1711Z" fill="#DC3545"/>
</g>
<defs>
<clipPath id="clip0_611_1647">
<rect width="70" height="70" fill="white"/>
</clipPath>
</defs>
</svg>
