<svg width="70" height="70" viewBox="0 0 70 70" fill="none" xmlns="http://www.w3.org/2000/svg">
<g clip-path="url(#clip0_611_1721)">
<path d="M7.74051 4.92579C7.4683 4.70349 7.10996 4.61681 6.76611 4.68995C6.69311 4.7024 6.62242 4.72591 6.55652 4.75941C6.48188 4.78497 6.41105 4.82052 6.3457 4.86482L6.17139 5.00495C6.06844 5.11829 5.98559 5.24831 5.92639 5.38954C5.8665 5.52995 5.83479 5.68076 5.83301 5.83333C5.83711 6.14232 5.95797 6.43818 6.17139 6.66171C6.39383 6.87663 6.69037 6.9979 6.99977 7.00009C7.30861 6.99531 7.6042 6.87458 7.82814 6.66171C7.87477 6.60306 7.92152 6.54495 7.96828 6.47482C8.01436 6.41521 8.04977 6.34822 8.07314 6.27658C8.10691 6.21054 8.13043 6.13958 8.1426 6.06644C8.15682 5.98947 8.16475 5.91154 8.16652 5.83333C8.16939 5.48183 8.01271 5.1481 7.74051 4.92579Z" fill="#DC3545"/>
<path d="M11.6667 4.6665C11.0223 4.6665 10.5001 5.18877 10.5001 5.83313C10.497 6.14348 10.619 6.44193 10.8384 6.66137C11.0579 6.8808 11.3563 7.00275 11.6667 6.99975C11.977 7.00275 12.2755 6.8808 12.4949 6.66137C12.7144 6.44193 12.8363 6.14348 12.8333 5.83313C12.8334 5.18891 12.311 4.6665 11.6667 4.6665Z" fill="#DC3545"/>
<path d="M16.9751 4.86466C16.9156 4.81831 16.8485 4.78263 16.7769 4.75925C16.7071 4.72398 16.6321 4.70046 16.5547 4.6898C16.1746 4.62089 15.7846 4.73792 15.5054 5.0048C15.0542 5.46486 15.0542 6.20136 15.5054 6.66142C15.729 6.87443 16.0248 6.99529 16.3336 6.9998C16.644 7.00281 16.9424 6.88085 17.1619 6.66142C17.3813 6.44199 17.5032 6.14353 17.5002 5.83318C17.4957 5.52433 17.3749 5.22861 17.1619 5.0048C17.1038 4.95818 17.0446 4.91142 16.9751 4.86466Z" fill="#DC3545"/>
<path d="M32.667 4.6665H23.3336C22.6893 4.6665 22.167 5.18877 22.167 5.83313C22.167 6.47748 22.6893 6.99975 23.3336 6.99975H32.667C33.3113 6.99975 33.8336 6.47748 33.8336 5.83313C33.8336 5.18877 33.3113 4.6665 32.667 4.6665Z" fill="#DC3545"/>
<path d="M14 19.8335C12.0671 19.8335 10.5 21.4006 10.5 23.3335C10.5021 25.2656 12.0679 26.8314 14 26.8335C15.9329 26.8335 17.5 25.2666 17.5 23.3335C17.5 21.4004 15.9331 19.8335 14 19.8335ZM14 24.5001C13.3556 24.5001 12.8334 23.9779 12.8334 23.3335C12.8341 22.6894 13.3559 22.1674 14 22.1669C14.6444 22.1669 15.1666 22.6891 15.1666 23.3335C15.1666 23.9779 14.6444 24.5001 14 24.5001Z" fill="#DC3545"/>
<path d="M23.333 43.1665H6.99963C6.35527 43.1665 5.83301 43.6888 5.83301 44.3331C5.83301 44.9775 6.35527 45.4997 6.99963 45.4997H23.333C23.9774 45.4997 24.4996 44.9775 24.4996 44.3331C24.4996 43.6888 23.9774 43.1665 23.333 43.1665Z" fill="#DC3545"/>
<path d="M23.333 47.8335H6.99963C6.35527 47.8335 5.83301 48.3558 5.83301 49.0001C5.83301 49.6445 6.35527 50.1667 6.99963 50.1667H23.333C23.9774 50.1667 24.4996 49.6445 24.4996 49.0001C24.4996 48.3558 23.9774 47.8335 23.333 47.8335Z" fill="#DC3545"/>
<path d="M23.333 52.5H6.99963C6.35527 52.5 5.83301 53.0224 5.83301 53.6666C5.83301 54.311 6.35527 54.8332 6.99963 54.8332H23.333C23.9774 54.8332 24.4996 54.3108 24.4996 53.6666C24.4996 53.0224 23.9774 52.5 23.333 52.5Z" fill="#DC3545"/>
<path d="M23.333 57.1665H6.99963C6.35527 57.1665 5.83301 57.6888 5.83301 58.3331C5.83301 58.9775 6.35527 59.4997 6.99963 59.4997H23.333C23.9774 59.4997 24.4996 58.9775 24.4996 58.3331C24.4996 57.6888 23.9774 57.1665 23.333 57.1665Z" fill="#DC3545"/>
<path d="M23.333 61.8335H6.99963C6.35527 61.8335 5.83301 62.3559 5.83301 63.0001C5.83301 63.6443 6.35527 64.1667 6.99963 64.1667H23.333C23.9774 64.1667 24.4996 63.6445 24.4996 63.0001C24.4996 62.3558 23.9774 61.8335 23.333 61.8335Z" fill="#DC3545"/>
<path d="M65.3334 24.5C63.0541 24.5055 61.1129 26.158 60.7436 28.4071L56 30.7788V5.83338C55.9962 2.61324 53.3868 0.00382813 50.1666 0H5.83338C2.61324 0.00382813 0.00382813 2.61324 0 5.83338V64.1668C0.00382813 67.3868 2.61324 69.9962 5.83338 70H50.1668C53.3869 69.9962 55.9963 67.3868 56.0001 64.1666V57.8878L60.7436 60.2595C61.1354 62.656 63.3022 64.3495 65.7223 64.151C68.1425 63.9524 70.0042 61.9283 70.0001 59.5V29.1666C69.9971 26.5906 67.9094 24.5029 65.3334 24.5ZM2.33338 5.83338C2.33543 3.90127 3.90127 2.33543 5.83338 2.33338H50.1668C52.0989 2.33543 53.6647 3.90127 53.6668 5.83338V9.33338H2.33338V5.83338ZM53.6666 64.1666C53.6646 66.0987 52.0987 67.6646 50.1666 67.6666H5.83338C3.90127 67.6646 2.33543 66.0987 2.33338 64.1666V11.6666H53.6668V31.9454L50.1668 33.6954V17.5C50.1653 16.212 49.1215 15.1681 47.8334 15.1666H8.16662C6.87859 15.1681 5.83475 16.2118 5.83324 17.5V38.5C5.8342 39.0904 6.06197 39.6577 6.46953 40.0848L6.47691 40.0985C6.48115 40.1036 6.48771 40.1049 6.49195 40.11C6.51998 40.1383 6.54186 40.1728 6.57152 40.1994C7.00219 40.6075 7.57326 40.8345 8.16662 40.8335H26.9512C26.8729 41.2174 26.8334 41.6083 26.8334 42.0001V46.6668C26.8402 49.506 28.8913 51.9274 31.6907 52.4014L33.4813 61.3527C33.811 62.9871 35.2457 64.1636 36.913 64.1668H39.6668C41.5989 64.1647 43.1647 62.5989 43.1668 60.6668V52.5H45.2244L53.6668 56.7212V64.1666H53.6666ZM32.6666 50.1666C30.7345 50.1646 29.1687 48.5987 29.1666 46.6666V42C29.1687 40.0679 30.7345 38.5021 32.6666 38.5H44.3332V50.1666H42H32.6666ZM40.8334 52.5V60.6666C40.8327 61.3107 40.3108 61.8327 39.6668 61.8332H36.913C36.3571 61.8324 35.8787 61.44 35.769 60.8951L34.0897 52.5H40.8334ZM33.8003 27.2241L43.4871 36.1666H32.6668C30.8402 36.1721 29.1227 37.0364 28.0299 38.5H20.6522L33.8003 27.2241ZM17.0688 38.5H10.2185L20.9282 29.578L23.9503 32.6L17.0688 38.5ZM35.3817 25.5078C34.5082 24.7122 33.1793 24.6907 32.2805 25.4576L25.7266 31.0769L22.5791 27.9289C21.7287 27.0695 20.3608 27.007 19.4357 27.7854L8.16662 37.1727V17.5H47.8332V34.8622L46.3293 35.6141L35.3817 25.5078ZM60.6666 57.6122L46.6666 50.6122V38.0546L60.6666 31.0546V57.6122ZM67.6666 59.5C67.6666 60.7887 66.622 61.8334 65.3332 61.8334C64.0445 61.8334 63 60.7887 63 59.5V29.1666C63 27.8779 64.0447 26.8332 65.3334 26.8332C66.6221 26.8332 67.6668 27.8779 67.6668 29.1666L67.6666 59.5Z" fill="#DC3545"/>
<rect x="-2" y="70.7104" width="100" height="3" transform="rotate(-45 -2 70.7104)" fill="#DC3545"/>
<rect x="0.414062" y="-1" width="100" height="3" transform="rotate(45 0.414062 -1)" fill="#DC3545"/>
</g>
<defs>
<clipPath id="clip0_611_1721">
<rect width="70" height="70" fill="white"/>
</clipPath>
</defs>
</svg>
