<svg width="70" height="70" viewBox="0 0 70 70" fill="none" xmlns="http://www.w3.org/2000/svg">
<g clip-path="url(#clip0_611_1577)">
<path d="M57.8034 48.8939C57.167 48.8939 56.7428 48.4696 56.7428 47.8333V5.51509C56.7428 4.1363 55.7882 3.18176 54.4094 3.18176H15.5913C14.2125 3.18176 13.2579 4.1363 13.2579 5.51509V47.8333C13.2579 48.4696 12.8337 48.8939 12.1973 48.8939C11.561 48.8939 11.1367 48.4696 11.1367 47.8333V5.51509C11.1367 2.96964 13.0458 1.06055 15.5913 1.06055H54.4094C56.9549 1.06055 58.864 2.96964 58.864 5.51509V47.8333C58.864 48.4696 58.4397 48.8939 57.8034 48.8939Z" fill="#DC3545"/>
<path d="M57.8034 10.7125H12.1973C11.561 10.7125 11.1367 10.2883 11.1367 9.65191C11.1367 9.01555 11.561 8.59131 12.1973 8.59131H57.8034C58.4397 8.59131 58.864 9.01555 58.864 9.65191C58.864 10.2883 58.4397 10.7125 57.8034 10.7125Z" fill="#DC3545"/>
<path d="M63.6363 54.9393H6.36358C3.39388 54.9393 1.06055 52.606 1.06055 49.6363V16.8636C1.06055 13.8939 3.39388 11.5605 6.36358 11.5605H12.1969C12.8333 11.5605 13.2575 11.9848 13.2575 12.6212C13.2575 13.2575 12.8333 13.6818 12.1969 13.6818H6.36358C4.56055 13.6818 3.18176 15.0605 3.18176 16.8636V49.6363C3.18176 51.4393 4.56055 52.8181 6.36358 52.8181H63.6363C65.4393 52.8181 66.8181 51.4393 66.8181 49.6363V16.8636C66.8181 15.0605 65.4393 13.6818 63.6363 13.6818H57.803C57.1666 13.6818 56.7424 13.2575 56.7424 12.6212C56.7424 11.9848 57.1666 11.5605 57.803 11.5605H63.6363C66.606 11.5605 68.9393 13.8939 68.9393 16.8636V49.6363C68.9393 52.606 66.606 54.9393 63.6363 54.9393Z" fill="#DC3545"/>
<path d="M63.5304 48.894H6.46979C5.83342 48.894 5.40918 48.4698 5.40918 47.8334V16.9698C5.40918 16.3334 5.83342 15.9092 6.46979 15.9092H11.8789C12.5152 15.9092 12.9395 16.3334 12.9395 16.9698C12.9395 17.6061 12.5152 18.0304 11.8789 18.0304H7.53039V46.7728H62.4698V18.0304H57.8031C57.1668 18.0304 56.7425 17.6061 56.7425 16.9698C56.7425 16.3334 57.1668 15.9092 57.8031 15.9092H63.5304C64.1668 15.9092 64.591 16.3334 64.591 16.9698V47.8334C64.591 48.4698 64.1668 48.894 63.5304 48.894Z" fill="#DC3545"/>
<path d="M42.3181 61.8335H27.6817C27.0453 61.8335 26.6211 61.4093 26.6211 60.7729V53.879C26.6211 53.2426 27.0453 52.8184 27.6817 52.8184H42.3181C42.9544 52.8184 43.3787 53.2426 43.3787 53.879V60.7729C43.3787 61.4093 42.9544 61.8335 42.3181 61.8335ZM28.7423 59.7123H41.2575V54.9396H28.7423V59.7123Z" fill="#DC3545"/>
<path d="M48.4697 68.9397H21.5303C20.894 68.9397 20.4697 68.5154 20.4697 67.8791C20.4697 63.4245 24.1818 59.7124 28.6364 59.7124H41.3637C45.8182 59.7124 49.5303 63.4245 49.5303 67.8791C49.5303 68.5154 49.1061 68.9397 48.4697 68.9397ZM22.697 66.8185H47.3031C46.7728 63.9548 44.3334 61.8336 41.3637 61.8336H28.6364C25.6667 61.8336 23.2273 63.9548 22.697 66.8185Z" fill="#DC3545"/>
<path d="M36.5911 51.9698H33.4092C32.7729 51.9698 32.3486 51.5456 32.3486 50.9092C32.3486 50.2729 32.7729 49.8486 33.4092 49.8486H36.5911C37.2274 49.8486 37.6517 50.2729 37.6517 50.9092C37.6517 51.5456 37.2274 51.9698 36.5911 51.9698Z" fill="#DC3545"/>
<path d="M29.8033 27.8939H20.2578C18.2427 27.8939 16.7578 26.409 16.7578 24.3939V16.5454C16.7578 14.5303 18.2427 13.0454 20.2578 13.0454H29.8033C31.8184 13.0454 33.3033 14.5303 33.3033 16.5454V24.3939C33.3033 26.409 31.8184 27.8939 29.8033 27.8939ZM20.2578 15.1666C19.4093 15.1666 18.879 15.6969 18.879 16.5454V24.3939C18.879 25.2424 19.4093 25.7727 20.2578 25.7727H29.8033C30.6518 25.7727 31.1821 25.2424 31.1821 24.3939V16.5454C31.1821 15.6969 30.6518 15.1666 29.8033 15.1666H20.2578Z" fill="#DC3545"/>
<path d="M32.2427 19.3029H17.8184C17.1821 19.3029 16.7578 18.8786 16.7578 18.2422C16.7578 17.6059 17.1821 17.1816 17.8184 17.1816H32.2427C32.879 17.1816 33.3033 17.6059 33.3033 18.2422C33.3033 18.8786 32.879 19.3029 32.2427 19.3029Z" fill="#DC3545"/>
<path d="M27.7881 27.8938C27.1518 27.8938 26.7275 27.4695 26.7275 26.8332V18.2422C26.7275 17.6059 27.1518 17.1816 27.7881 17.1816C28.4245 17.1816 28.8488 17.6059 28.8488 18.2422V26.8332C28.8488 27.4695 28.4245 27.8938 27.7881 27.8938Z" fill="#DC3545"/>
<path d="M49.7427 27.8939H40.1973C38.1821 27.8939 36.6973 26.409 36.6973 24.3939V16.5454C36.6973 14.5303 38.2882 13.0454 40.1973 13.0454H49.7427C51.7579 13.0454 53.2427 14.5303 53.2427 16.5454V24.3939C53.2427 26.409 51.7579 27.8939 49.7427 27.8939ZM40.1973 15.1666C39.3488 15.1666 38.8185 15.6969 38.8185 16.5454V24.3939C38.8185 25.2424 39.3488 25.7727 40.1973 25.7727H49.7427C50.5912 25.7727 51.1215 25.2424 51.1215 24.3939V16.5454C51.1215 15.6969 50.5912 15.1666 49.7427 15.1666H40.1973Z" fill="#DC3545"/>
<path d="M52.1821 19.3029H37.7579C37.1215 19.3029 36.6973 18.8786 36.6973 18.2422C36.6973 17.6059 37.1215 17.1816 37.7579 17.1816H52.1821C52.8185 17.1816 53.2427 17.6059 53.2427 18.2422C53.2427 18.8786 52.8185 19.3029 52.1821 19.3029Z" fill="#DC3545"/>
<path d="M42.212 27.8938C41.5756 27.8938 41.1514 27.4695 41.1514 26.8332V18.2422C41.1514 17.6059 41.5756 17.1816 42.212 17.1816C42.8483 17.1816 43.2726 17.6059 43.2726 18.2422V26.8332C43.2726 27.4695 42.8483 27.8938 42.212 27.8938Z" fill="#DC3545"/>
<path d="M29.8033 44.6517H20.2578C18.2427 44.6517 16.7578 43.1669 16.7578 41.1517V33.3032C16.7578 31.2881 18.2427 29.8032 20.2578 29.8032H29.8033C31.8184 29.8032 33.3033 31.2881 33.3033 33.3032V41.1517C33.3033 43.0608 31.7124 44.6517 29.8033 44.6517ZM20.2578 31.9244C19.4093 31.9244 18.879 32.4547 18.879 33.3032V41.1517C18.879 42.0002 19.4093 42.5305 20.2578 42.5305H29.8033C30.4396 42.5305 31.1821 42.0002 31.1821 41.1517V33.3032C31.1821 32.4547 30.6518 31.9244 29.8033 31.9244H20.2578Z" fill="#DC3545"/>
<path d="M22.2725 44.6517C21.6362 44.6517 21.2119 44.2275 21.2119 43.5911V30.8638C21.2119 30.2275 21.6362 29.8032 22.2725 29.8032C22.9089 29.8032 23.3331 30.2275 23.3331 30.8638V43.5911C23.3331 44.2275 22.9089 44.6517 22.2725 44.6517Z" fill="#DC3545"/>
<path d="M49.7427 44.6517H40.1973C38.1821 44.6517 36.6973 43.1669 36.6973 41.1517V33.3032C36.6973 31.2881 38.2882 29.8032 40.1973 29.8032H49.7427C51.7579 29.8032 53.2427 31.2881 53.2427 33.3032V41.1517C53.2427 43.1669 51.7579 44.6517 49.7427 44.6517ZM40.1973 31.9244C39.3488 31.9244 38.8185 32.4547 38.8185 33.3032V41.1517C38.8185 42.0002 39.3488 42.5305 40.1973 42.5305H49.7427C50.5912 42.5305 51.1215 42.0002 51.1215 41.1517V33.3032C51.1215 32.4547 50.5912 31.9244 49.7427 31.9244H40.1973Z" fill="#DC3545"/>
<path d="M52.1821 36.0607H37.7579C37.1215 36.0607 36.6973 35.6364 36.6973 35.0001C36.6973 34.3637 37.1215 33.9395 37.7579 33.9395H52.1821C52.8185 33.9395 53.2427 34.3637 53.2427 35.0001C53.2427 35.6364 52.8185 36.0607 52.1821 36.0607Z" fill="#DC3545"/>
<path d="M36.379 6.89416H18.3487C17.7123 6.89416 17.2881 6.46992 17.2881 5.83356C17.2881 5.19719 17.7123 4.77295 18.3487 4.77295H36.379C37.0154 4.77295 37.4396 5.19719 37.4396 5.83356C37.4396 6.46992 37.0154 6.89416 36.379 6.89416Z" fill="#DC3545"/>
<path d="M51.6518 6.89416H48.7881C48.1518 6.89416 47.7275 6.46992 47.7275 5.83356C47.7275 5.19719 48.1518 4.77295 48.7881 4.77295H51.6518C52.2881 4.77295 52.7124 5.19719 52.7124 5.83356C52.7124 6.46992 52.2881 6.89416 51.6518 6.89416Z" fill="#DC3545"/>
<path d="M44.0158 6.89416H41.3643C40.728 6.89416 40.3037 6.46992 40.3037 5.83356C40.3037 5.19719 40.728 4.77295 41.3643 4.77295H44.0158C44.6522 4.77295 45.0764 5.19719 45.0764 5.83356C45.0764 6.46992 44.6522 6.89416 44.0158 6.89416Z" fill="#DC3545"/>
<rect x="-4.24219" y="72.875" width="106.061" height="3.18182" transform="rotate(-45 -4.24219 72.875)" fill="#DC3545"/>
<rect x="-1.68164" y="-3.18164" width="106.061" height="3.18182" transform="rotate(45 -1.68164 -3.18164)" fill="#DC3545"/>
</g>
<defs>
<clipPath id="clip0_611_1577">
<rect width="70" height="70" fill="white"/>
</clipPath>
</defs>
</svg>
