<svg width="70" height="70" viewBox="0 0 70 70" fill="none" xmlns="http://www.w3.org/2000/svg">
<g clip-path="url(#clip0_611_1777)">
<path d="M55.3229 40.645C47.2301 40.645 40.6455 47.2296 40.6455 55.3224C40.6455 63.4153 47.2301 69.9999 55.3229 69.9999C63.4158 69.9999 70.0003 63.4153 70.0003 55.3224C70.0003 47.2296 63.4158 40.645 55.3229 40.645ZM55.3229 67.7418C48.4754 67.7418 42.9036 62.17 42.9036 55.3224C42.9036 48.4749 48.4754 42.9031 55.3229 42.9031C62.1704 42.9031 67.7423 48.4749 67.7423 55.3224C67.7423 62.17 62.1704 67.7418 55.3229 67.7418Z" fill="#DC3545"/>
<path d="M55.3226 58.7096C54.6997 58.7096 54.1936 58.2024 54.1936 57.5806H51.9355C51.9355 59.0503 52.8827 60.2924 54.1936 60.7599V62.0967H56.4517V60.7599C57.7626 60.2924 58.7097 59.0503 58.7097 57.5806C58.7097 55.7134 57.1898 54.1935 55.3226 54.1935C54.6997 54.1935 54.1936 53.6863 54.1936 53.0645C54.1936 52.4426 54.6997 51.9354 55.3226 51.9354C55.9456 51.9354 56.4517 52.4426 56.4517 53.0645H58.7097C58.7097 51.5947 57.7626 50.3527 56.4517 49.8852V48.5483H54.1936V49.8852C52.8827 50.3527 51.9355 51.5947 51.9355 53.0645C51.9355 54.9317 53.4554 56.4516 55.3226 56.4516C55.9456 56.4516 56.4517 56.9587 56.4517 57.5806C56.4517 58.2024 55.9456 58.7096 55.3226 58.7096Z" fill="#DC3545"/>
<path d="M55.3223 45.1611C53.0505 45.1611 50.8988 45.9015 49.0967 47.3018L50.4821 49.0846C51.8845 47.9947 53.5588 47.4192 55.3223 47.4192C59.6792 47.4192 63.2256 50.9645 63.2256 55.3224C63.2256 57.086 62.65 58.7602 61.559 60.1627L63.343 61.5481C64.7444 59.7448 65.4836 57.5932 65.4836 55.3224C65.4836 49.7203 60.9256 45.1611 55.3223 45.1611Z" fill="#DC3545"/>
<path d="M55.3224 63.2256C50.9656 63.2256 47.4192 59.6803 47.4192 55.3223C47.4192 53.5588 47.9947 51.8845 49.0857 50.4821L47.3018 49.0967C45.9004 50.8999 45.1611 53.0516 45.1611 55.3223C45.1611 60.9245 49.7192 65.4836 55.3224 65.4836C57.5943 65.4836 59.7459 64.7433 61.5481 63.343L60.1627 61.5601C58.7602 62.65 57.086 63.2256 55.3224 63.2256Z" fill="#DC3545"/>
<path d="M4.51613 47.4194H2.25806V53.0646H0V70.0001H6.77419V53.0646H4.51613V47.4194ZM4.51613 67.742H2.25806V55.3227H4.51613V67.742Z" fill="#DC3545"/>
<path d="M14.6773 47.4194H12.4192V53.0646H10.1611V60.9678H12.4192V70.0001H14.6773V60.9678H16.9353V53.0646H14.6773V47.4194ZM14.6773 58.7098H12.4192V55.3227H14.6773V58.7098Z" fill="#DC3545"/>
<path d="M24.8384 47.4194H22.5803V58.7098H20.3223V65.4839H22.5803V70.0001H24.8384V65.4839H27.0965V58.7098H24.8384V47.4194ZM24.8384 63.2259H22.5803V60.9678H24.8384V63.2259Z" fill="#DC3545"/>
<path d="M34.9995 47.4194H32.7415V49.6775H30.4834V59.8388H32.7415V70.0001H34.9995V59.8388H37.2576V49.6775H34.9995V47.4194ZM34.9995 57.5807H32.7415V51.9356H34.9995V57.5807Z" fill="#DC3545"/>
<path d="M40.0271 35.1808C39.6169 33.1289 38.118 31.4817 36.1124 30.8802L28.2263 28.5147V26.277C29.1668 25.2092 29.8553 23.9186 30.2087 22.4946C32.292 22.0928 33.8714 20.2625 33.8714 18.0645V12.4194C33.8714 5.57184 28.2996 0 21.4521 0C14.6046 0 9.03271 5.57184 9.03271 12.4194V18.0645C9.03271 20.2625 10.6121 22.0928 12.6955 22.4946C13.0488 23.9186 13.7374 25.2092 14.6779 26.277V28.5147L6.79174 30.8813C4.78782 31.4817 3.28722 33.1306 2.87706 35.1819L0.880859 45.1613H42.0233L40.0271 35.1808ZM16.9359 28.1332C18.2662 28.9055 19.8059 29.3548 21.4521 29.3548C23.0982 29.3548 24.6379 28.9055 25.9682 28.1332V28.7159L21.4521 31.4255L16.9359 28.7159V28.1332ZM27.251 30.5798L28.2263 30.8725V33.4035L25.9682 35.6615L23.273 32.9669L27.251 30.5798ZM21.4521 27.0968C17.716 27.0968 14.6779 24.0586 14.6779 20.3226V16.6207L19.194 15.1146V16.9355H20.323C23.0282 16.9355 25.7334 16.3798 28.2263 15.3268V20.3226C28.2263 24.0586 25.1881 27.0968 21.4521 27.0968ZM30.4843 20.0089V16.1212C31.1563 16.5132 31.6134 17.2337 31.6134 18.0656C31.6134 18.8975 31.1563 19.6169 30.4843 20.0089ZM21.4521 2.25806C27.0553 2.25806 31.6134 6.81719 31.6134 12.4194V14.1763C31.2633 13.9718 30.8862 13.8125 30.4843 13.7088V12.4194H28.2263V12.8416C26.1148 13.8736 23.7972 14.4922 21.4521 14.6427V11.9833L14.6779 14.2414V12.4194H12.4198V13.7088C12.0179 13.8136 11.6408 13.9718 11.2908 14.1763V12.4194C11.2908 6.81719 15.8488 2.25806 21.4521 2.25806ZM11.2908 18.0645C11.2908 17.2326 11.7478 16.5121 12.4198 16.1201V20.0078C11.7478 19.6169 11.2908 18.8964 11.2908 18.0645ZM15.6531 30.5798L19.6312 32.9669L16.9359 35.6615L14.6779 33.4035V30.8725L15.6531 30.5798ZM32.5935 42.9032L31.6034 35.9686L29.368 36.2884L30.3118 42.9032H12.5924L13.5378 36.2895L11.3018 35.9697L10.3106 42.9032H3.63618L5.09102 35.6246C5.33745 34.3936 6.23825 33.4046 7.4395 33.0446L12.4198 31.5495V34.3385L16.9359 38.8546L21.4521 34.3385L25.9682 38.8546L30.4843 34.3385V31.5495L35.4646 33.0435C36.6659 33.4035 37.5667 34.3925 37.8131 35.623L39.268 42.9032H32.5935Z" fill="#DC3545"/>
<path d="M65.9433 11.8107C65.7702 11.2991 65.5645 10.8002 65.3275 10.3195L67.6208 6.88059L63.119 2.3788L59.679 4.67104C59.1983 4.43509 58.7005 4.22946 58.1878 4.05525L57.3757 0H51.0095L50.1975 4.05525C49.6848 4.22946 49.1858 4.43509 48.7062 4.67104L45.2657 2.3788L40.7644 6.88059L43.0578 10.3195C42.8202 10.8002 42.6151 11.2991 42.442 11.8107L38.3867 12.6228V18.9901L42.4431 19.8022C42.6162 20.3138 42.8218 20.8127 43.0589 21.2934L40.7655 24.7323L45.2684 29.2341L48.7073 26.9408C49.1881 27.1767 49.6859 27.3834 50.1986 27.5565L51.0106 31.6129H57.3768L58.1889 27.5576C58.7016 27.3834 59.2005 27.1778 59.6801 26.9419L63.119 29.2352L67.6219 24.734L65.3286 21.2945C65.5662 20.8138 65.7713 20.3149 65.9444 19.8033L69.9996 18.9901V12.6228L65.9433 11.8107ZM67.7416 17.1389L64.1593 17.8556L63.9741 18.5265C63.7525 19.3259 63.4366 20.0921 63.0336 20.8033L62.6901 21.4086L64.7145 24.4445L62.8313 26.3288L59.7942 24.3045L59.19 24.6469C58.4822 25.0487 57.7148 25.3646 56.911 25.5885L56.2412 25.7737L55.5267 29.3548H52.8607L52.1451 25.7737L51.4753 25.5885C50.6716 25.3646 49.9042 25.0487 49.1963 24.6469L48.5921 24.3045L45.5551 26.3288L43.6719 24.4445L45.6962 21.4086L45.3528 20.8033C44.9498 20.0921 44.6339 19.3259 44.4123 18.5265L44.227 17.8556L40.6448 17.1389V14.474L44.227 13.7573L44.4123 13.0864C44.6339 12.287 44.9498 11.5208 45.3528 10.8096L45.6962 10.2043L43.6719 7.16836L45.5562 5.28407L48.591 7.30729L49.1963 6.96494C49.9042 6.56415 50.6716 6.24716 51.4753 6.02445L52.1451 5.83921L52.8596 2.25806H55.5256L56.2412 5.83921L56.911 6.02445C57.7148 6.24827 58.4822 6.56415 59.19 6.96494L59.7953 7.30729L62.8302 5.28407L64.7145 7.16836L62.6901 10.2043L63.0336 10.8096C63.4366 11.5208 63.7525 12.287 63.9741 13.0864L64.1593 13.7573L67.7416 14.474V17.1389Z" fill="#DC3545"/>
<path d="M54.1933 7.90332C49.8365 7.90332 46.29 11.4486 46.29 15.8065C46.29 20.1645 49.8365 23.7098 54.1933 23.7098C58.5501 23.7098 62.0965 20.1645 62.0965 15.8065C62.0965 11.4486 58.5501 7.90332 54.1933 7.90332ZM54.1933 21.4517C51.0807 21.4517 48.5481 18.9191 48.5481 15.8065C48.5481 12.694 51.0807 10.1614 54.1933 10.1614C57.3058 10.1614 59.8384 12.694 59.8384 15.8065C59.8384 18.9191 57.3058 21.4517 54.1933 21.4517Z" fill="#DC3545"/>
</g>
<defs>
<clipPath id="clip0_611_1777">
<rect width="70" height="70" fill="white"/>
</clipPath>
</defs>
</svg>
