<svg width="24" height="24" viewBox="0 0 24 24" fill="none" xmlns="http://www.w3.org/2000/svg">
<path d="M18.4618 0H5.53876C4.01015 0 2.76953 1.24062 2.76953 2.76923V21.2308C2.76953 22.7594 4.01015 24 5.53876 24H18.4618C19.9905 24 21.2311 22.7594 21.2311 21.2308V2.76923C21.2311 1.24062 19.9905 0 18.4618 0ZM19.3849 7.38462C19.3849 7.89323 18.9705 8.30769 18.4618 8.30769H5.53876C5.03015 8.30769 4.61569 7.89323 4.61569 7.38462V2.76923C4.61569 2.26062 5.03015 1.84615 5.53876 1.84615H18.4618C18.9705 1.84615 19.3849 2.26062 19.3849 2.76923V7.38462ZM8.30799 12C8.30799 12.5086 7.89353 12.9231 7.38492 12.9231H5.53876C5.03015 12.9231 4.61569 12.5086 4.61569 12V11.0769C4.61569 10.5683 5.03015 10.1538 5.53876 10.1538H7.38492C7.89353 10.1538 8.30799 10.5683 8.30799 11.0769V12ZM13.8465 12C13.8465 12.5086 13.432 12.9231 12.9234 12.9231H11.0772C10.5686 12.9231 10.1541 12.5086 10.1541 12V11.0769C10.1541 10.5683 10.5686 10.1538 11.0772 10.1538H12.9234C13.432 10.1538 13.8465 10.5683 13.8465 11.0769V12ZM19.3849 12C19.3849 12.5086 18.9705 12.9231 18.4618 12.9231H16.6157C16.1071 12.9231 15.6926 12.5086 15.6926 12V11.0769C15.6926 10.5683 16.1071 10.1538 16.6157 10.1538H18.4618C18.9705 10.1538 19.3849 10.5683 19.3849 11.0769V12ZM8.30799 16.6154C8.30799 17.124 7.89353 17.5385 7.38492 17.5385H5.53876C5.03015 17.5385 4.61569 17.124 4.61569 16.6154V15.6923C4.61569 15.1837 5.03015 14.7692 5.53876 14.7692H7.38492C7.89353 14.7692 8.30799 15.1837 8.30799 15.6923V16.6154ZM13.8465 16.6154C13.8465 17.124 13.432 17.5385 12.9234 17.5385H11.0772C10.5686 17.5385 10.1541 17.124 10.1541 16.6154V15.6923C10.1541 15.1837 10.5686 14.7692 11.0772 14.7692H12.9234C13.432 14.7692 13.8465 15.1837 13.8465 15.6923V16.6154ZM19.3849 16.6154C19.3849 17.124 18.9705 17.5385 18.4618 17.5385H16.6157C16.1071 17.5385 15.6926 17.124 15.6926 16.6154V15.6923C15.6926 15.1837 16.1071 14.7692 16.6157 14.7692H18.4618C18.9705 14.7692 19.3849 15.1837 19.3849 15.6923V16.6154ZM8.30799 21.2308C8.30799 21.7394 7.89353 22.1538 7.38492 22.1538H5.53876C5.03015 22.1538 4.61569 21.7394 4.61569 21.2308V20.3077C4.61569 19.7991 5.03015 19.3846 5.53876 19.3846H7.38492C7.89353 19.3846 8.30799 19.7991 8.30799 20.3077V21.2308ZM13.8465 21.2308C13.8465 21.7394 13.432 22.1538 12.9234 22.1538H11.0772C10.5686 22.1538 10.1541 21.7394 10.1541 21.2308V20.3077C10.1541 19.7991 10.5686 19.3846 11.0772 19.3846H12.9234C13.432 19.3846 13.8465 19.7991 13.8465 20.3077V21.2308ZM19.3849 21.2308C19.3849 21.7394 18.9705 22.1538 18.4618 22.1538H16.6157C16.1071 22.1538 15.6926 21.7394 15.6926 21.2308V20.3077C15.6926 19.7991 16.1071 19.3846 16.6157 19.3846H18.4618C18.9705 19.3846 19.3849 19.7991 19.3849 20.3077V21.2308Z" fill="#DC3545"/>
<path d="M17.5388 3.69236V6.46159H15.6926V3.69236H17.5388ZM17.5388 2.76929H15.6926C15.184 2.76929 14.7695 3.18375 14.7695 3.69236V6.46159C14.7695 6.97021 15.184 7.38467 15.6926 7.38467H17.5388C18.0474 7.38467 18.4618 6.97021 18.4618 6.46159V3.69236C18.4618 3.18375 18.0474 2.76929 17.5388 2.76929Z" fill="#DC3545"/>
</svg>
