<svg width="28" height="28" viewBox="0 0 28 28" fill="none" xmlns="http://www.w3.org/2000/svg">
<path opacity="0.998" fill-rule="evenodd" clip-rule="evenodd" d="M6.07799 3.48833C6.42942 3.44342 6.72885 3.54454 6.97633 3.79167C8.03214 5.39768 9.08214 7.00768 10.1263 8.62167C10.2298 9.02386 10.191 9.41276 10.0097 9.78833C9.43804 10.7607 8.84304 11.7173 8.22466 12.6583C8.48401 13.3405 8.82234 13.9783 9.23966 14.5717C10.3474 16.1305 11.6735 17.4721 13.218 18.5967C13.8846 19.0759 14.6041 19.4609 15.3763 19.7517C16.2373 19.1941 17.1045 18.6458 17.978 18.1067C18.2405 17.9518 18.5205 17.8429 18.818 17.78C18.9658 17.7644 19.1136 17.7644 19.2613 17.78C19.3341 17.8047 19.4041 17.8358 19.4713 17.8733C21.0799 18.9142 22.6821 19.9642 24.278 21.0233C24.4437 21.2126 24.5291 21.4343 24.5347 21.6883C24.5179 21.9729 24.4362 22.2374 24.2897 22.4817C23.6314 23.3812 22.8965 24.2174 22.0847 24.99C21.8049 25.2464 21.4938 25.4564 21.1513 25.62C20.9964 25.6452 20.8409 25.6646 20.6847 25.6783C19.5648 25.6496 18.4837 25.428 17.4413 25.0133C15.8739 24.374 14.4195 23.5494 13.078 22.54C10.0128 20.2293 7.34894 17.5265 5.08633 14.4317C4.26229 13.2663 3.57006 12.0218 3.00966 10.6983C2.56045 9.61109 2.32321 8.47943 2.29799 7.30333C2.29458 7.07247 2.35292 6.8586 2.47299 6.66167C2.71078 6.30709 2.97522 5.97266 3.26633 5.65833C4.00403 4.88117 4.8168 4.20063 5.70466 3.61667C5.8294 3.56603 5.95384 3.52326 6.07799 3.48833Z" fill="#DC3545"/>
<path opacity="0.999" fill-rule="evenodd" clip-rule="evenodd" d="M16.2747 3.48833C16.3212 4.06336 16.3367 4.64669 16.3214 5.23833C17.8775 5.22732 19.4331 5.23899 20.988 5.27333C22.4212 5.57874 23.3585 6.43041 23.7997 7.82833C23.8429 7.99729 23.8739 8.16839 23.893 8.34167C23.9047 10.4183 23.9087 12.495 23.9047 14.5717C23.1269 14.5717 22.3491 14.5717 21.5714 14.5717C21.5753 12.6272 21.5714 10.6828 21.5597 8.73833C21.5184 8.14483 21.2112 7.7676 20.638 7.60667C19.1996 7.57255 17.7608 7.56089 16.3214 7.57167C16.3291 8.15521 16.3214 8.73854 16.298 9.32167C14.9941 8.35485 13.6952 7.38262 12.4014 6.405C13.6932 5.43256 14.9843 4.46035 16.2747 3.48833Z" fill="#DC3545"/>
</svg>
