<svg width="149" height="28" viewBox="0 0 149 28" fill="none" xmlns="http://www.w3.org/2000/svg">
<g clip-path="url(#clip0_232_2017)">
<path d="M8.428 20.364C6.31867 20.364 4.564 19.664 3.164 18.264C1.764 16.8453 1.064 15.0907 1.064 13C1.064 10.9093 1.764 9.164 3.164 7.764C4.564 6.34533 6.31867 5.636 8.428 5.636C9.80933 5.636 11.0507 5.972 12.152 6.644C13.2533 7.29733 14.0747 8.184 14.616 9.304L12.572 10.48C12.2173 9.73333 11.6667 9.136 10.92 8.688C10.192 8.24 9.36133 8.016 8.428 8.016C7.028 8.016 5.852 8.492 4.9 9.444C3.96667 10.4147 3.5 11.6 3.5 13C3.5 14.3813 3.96667 15.5573 4.9 16.528C5.852 17.48 7.028 17.956 8.428 17.956C9.36133 17.956 10.2013 17.7413 10.948 17.312C11.6947 16.864 12.264 16.2667 12.656 15.52L14.728 16.724C14.112 17.844 13.244 18.7307 12.124 19.384C11.004 20.0373 9.772 20.364 8.428 20.364ZM28.5338 8.408V6H30.9698V20H28.5338V17.592C27.3391 19.44 25.5751 20.364 23.2418 20.364C21.2631 20.364 19.5924 19.6547 18.2298 18.236C16.8484 16.7987 16.1578 15.0533 16.1578 13C16.1578 10.9653 16.8484 9.22933 18.2298 7.792C19.6111 6.35467 21.2818 5.636 23.2418 5.636C25.5751 5.636 27.3391 6.56 28.5338 8.408ZM23.5498 18.012C24.9684 18.012 26.1538 17.536 27.1058 16.584C28.0578 15.5947 28.5338 14.4 28.5338 13C28.5338 11.5813 28.0578 10.396 27.1058 9.444C26.1538 8.47333 24.9684 7.988 23.5498 7.988C22.1498 7.988 20.9738 8.47333 20.0218 9.444C19.0698 10.396 18.5938 11.5813 18.5938 13C18.5938 14.4 19.0698 15.5947 20.0218 16.584C20.9738 17.536 22.1498 18.012 23.5498 18.012ZM44.5165 3.9H36.9565V1.772H44.5165V3.9ZM37.0685 15.828L44.8245 6H46.7845V20H44.3765V10.172L36.6205 20H34.6605V6H37.0685V15.828ZM48.9245 6H60.9085V8.352H56.1485V20H53.7125V8.352H48.9245V6ZM108.99 20.308C108.486 20.308 108.056 20.1307 107.702 19.776C107.347 19.4213 107.17 18.992 107.17 18.488C107.17 17.984 107.347 17.5547 107.702 17.2C108.056 16.8453 108.486 16.668 108.99 16.668C109.512 16.668 109.942 16.8453 110.278 17.2C110.632 17.5547 110.81 17.984 110.81 18.488C110.81 18.992 110.632 19.4213 110.278 19.776C109.942 20.1307 109.512 20.308 108.99 20.308ZM121.986 5.636C123.946 5.636 125.617 6.35467 126.998 7.792C128.379 9.22933 129.07 10.9653 129.07 13C129.07 15.0533 128.379 16.7987 126.998 18.236C125.635 19.6547 123.965 20.364 121.986 20.364C119.671 20.364 117.907 19.44 116.694 17.592V25.6H114.258V6H116.694V8.408C117.907 6.56 119.671 5.636 121.986 5.636ZM121.678 18.012C123.078 18.012 124.254 17.536 125.206 16.584C126.158 15.5947 126.634 14.4 126.634 13C126.634 11.5813 126.158 10.396 125.206 9.444C124.254 8.47333 123.078 7.988 121.678 7.988C120.259 7.988 119.074 8.47333 118.122 9.444C117.17 10.396 116.694 11.5813 116.694 13C116.694 14.4 117.17 15.5947 118.122 16.584C119.074 17.536 120.259 18.012 121.678 18.012ZM140.797 20.28V25.6H138.389V20.28C136.205 20.0373 134.46 19.244 133.153 17.9C131.846 16.5747 131.193 14.9413 131.193 13C131.193 11.0587 131.846 9.42533 133.153 8.1C134.46 6.756 136.205 5.96267 138.389 5.72V0.399999H140.797V5.72C142.981 5.96267 144.726 6.756 146.033 8.1C147.34 9.42533 147.993 11.0587 147.993 13C147.993 14.9413 147.34 16.5747 146.033 17.9C144.726 19.244 142.981 20.0373 140.797 20.28ZM133.601 13C133.601 14.3067 134.021 15.408 134.861 16.304C135.72 17.1813 136.896 17.7227 138.389 17.928V8.072C136.914 8.25867 135.748 8.8 134.889 9.696C134.03 10.5733 133.601 11.6747 133.601 13ZM140.797 8.072V17.928C142.272 17.7227 143.429 17.1813 144.269 16.304C145.128 15.408 145.557 14.3067 145.557 13C145.557 11.6933 145.128 10.6013 144.269 9.724C143.429 8.828 142.272 8.27733 140.797 8.072Z" fill="#4B4B4B"/>
<path d="M61.5873 2.192L66.7393 0.399999H68.9793V20H66.4033V3.2L62.2313 4.432L61.5873 2.192ZM85.5678 17.592C84.2611 19.44 82.4038 20.364 79.9958 20.364C77.5878 20.364 75.7304 19.44 74.4238 17.592C73.0984 15.7253 72.4358 13.2613 72.4358 10.2C72.4358 7.13867 73.0984 4.67467 74.4238 2.808C75.7304 0.959999 77.5878 0.0359983 79.9958 0.0359983C82.4038 0.0359983 84.2611 0.959999 85.5678 2.808C86.8931 4.67467 87.5558 7.13867 87.5558 10.2C87.5558 13.2613 86.8931 15.7253 85.5678 17.592ZM75.0398 10.2C75.0398 12.6267 75.4691 14.5027 76.3278 15.828C77.1864 17.1533 78.4091 17.816 79.9958 17.816C81.5824 17.816 82.8051 17.1533 83.6638 15.828C84.5411 14.5027 84.9798 12.6267 84.9798 10.2C84.9798 7.77333 84.5411 5.89733 83.6638 4.572C82.8051 3.228 81.5824 2.556 79.9958 2.556C78.4091 2.556 77.1864 3.21867 76.3278 4.544C75.4691 5.86933 75.0398 7.75467 75.0398 10.2ZM103.204 17.592C101.898 19.44 100.041 20.364 97.6325 20.364C95.2245 20.364 93.3672 19.44 92.0605 17.592C90.7352 15.7253 90.0725 13.2613 90.0725 10.2C90.0725 7.13867 90.7352 4.67467 92.0605 2.808C93.3672 0.959999 95.2245 0.0359983 97.6325 0.0359983C100.041 0.0359983 101.898 0.959999 103.204 2.808C104.53 4.67467 105.193 7.13867 105.193 10.2C105.193 13.2613 104.53 15.7253 103.204 17.592ZM92.6765 10.2C92.6765 12.6267 93.1058 14.5027 93.9645 15.828C94.8232 17.1533 96.0458 17.816 97.6325 17.816C99.2192 17.816 100.442 17.1533 101.301 15.828C102.178 14.5027 102.617 12.6267 102.617 10.2C102.617 7.77333 102.178 5.89733 101.301 4.572C100.442 3.228 99.2192 2.556 97.6325 2.556C96.0458 2.556 94.8232 3.21867 93.9645 4.544C93.1058 5.86933 92.6765 7.75467 92.6765 10.2Z" fill="#DC3545"/>
</g>
<defs>
<clipPath id="clip0_232_2017">
<rect width="149" height="28" fill="white"/>
</clipPath>
</defs>
</svg>
