<svg width="95" height="18" viewBox="0 0 95 18" fill="none" xmlns="http://www.w3.org/2000/svg">
<mask id="mask0_137_8" style="mask-type:luminance" maskUnits="userSpaceOnUse" x="0" y="0" width="95" height="18">
<path d="M95 0H0V18H95V0Z" fill="white"/>
</mask>
<g mask="url(#mask0_137_8)">
<path d="M5.3729 14.3789C4.02803 14.3789 2.90928 13.9289 2.01666 13.0289C1.12404 12.1169 0.677734 10.9889 0.677734 9.64492C0.677734 8.3009 1.12404 7.17892 2.01666 6.27892C2.90928 5.36692 4.02803 4.91092 5.3729 4.91092C6.25362 4.91092 7.04509 5.12692 7.74726 5.55892C8.44944 5.97892 8.97315 6.54892 9.31827 7.26892L8.01505 8.02492C7.7889 7.5449 7.43785 7.16092 6.96176 6.87292C6.4976 6.58492 5.96798 6.44092 5.3729 6.44092C4.48029 6.44092 3.73049 6.74692 3.12351 7.35892C2.52843 7.98294 2.23089 8.74492 2.23089 9.64492C2.23089 10.5329 2.52843 11.2889 3.12351 11.9129C3.73049 12.5249 4.48029 12.8309 5.3729 12.8309C5.96798 12.8309 6.50353 12.6929 6.97961 12.4169C7.4557 12.1289 7.81867 11.7449 8.06861 11.2649L9.38968 12.0389C8.99693 12.7589 8.44351 13.3289 7.72941 13.7489C7.01532 14.1689 6.22982 14.3789 5.3729 14.3789ZM18.192 6.69292V5.14492H19.7452V14.1449H18.192V12.5969C17.4303 13.7849 16.3056 14.3789 14.8179 14.3789C13.5564 14.3789 12.4911 13.9229 11.6224 13.0109C10.7416 12.0869 10.3013 10.9649 10.3013 9.64492C10.3013 8.3369 10.7416 7.2209 11.6224 6.29692C12.5031 5.37292 13.5683 4.91092 14.8179 4.91092C16.3056 4.91092 17.4303 5.50492 18.192 6.69292ZM15.0143 12.8669C15.9188 12.8669 16.6746 12.5609 17.2816 11.9489C17.8885 11.3129 18.192 10.5449 18.192 9.64492C18.192 8.7329 17.8885 7.97092 17.2816 7.35892C16.6746 6.7349 15.9188 6.42292 15.0143 6.42292C14.1217 6.42292 13.3719 6.7349 12.7649 7.35892C12.1579 7.97092 11.8545 8.7329 11.8545 9.64492C11.8545 10.5449 12.1579 11.3129 12.7649 11.9489C13.3719 12.5609 14.1217 12.8669 15.0143 12.8669ZM28.3823 3.79492H23.5622V2.42692H28.3823V3.79492ZM23.6336 11.4629L28.5787 5.14492H29.8284V14.1449H28.2931V7.82692L23.348 14.1449H22.0983V5.14492H23.6336V11.4629ZM31.1928 5.14492H38.8336V6.65692H35.7987V14.1449H34.2456V6.65692H31.1928V5.14492ZM69.4896 14.3429C69.1683 14.3429 68.8941 14.2289 68.6684 14.0009C68.4421 13.7729 68.3292 13.4969 68.3292 13.1729C68.3292 12.8489 68.4421 12.5729 68.6684 12.3449C68.8941 12.1169 69.1683 12.0029 69.4896 12.0029C69.8224 12.0029 70.0966 12.1169 70.3108 12.3449C70.5365 12.5729 70.65 12.8489 70.65 13.1729C70.65 13.4969 70.5365 13.7729 70.3108 14.0009C70.0966 14.2289 69.8224 14.3429 69.4896 14.3429ZM77.7757 4.91092C79.0253 4.91092 80.0907 5.37292 80.9712 6.29692C81.8517 7.2209 82.2923 8.3369 82.2923 9.64492C82.2923 10.9649 81.8517 12.0869 80.9712 13.0109C80.1022 13.9229 79.0374 14.3789 77.7757 14.3789C76.2996 14.3789 75.1749 13.7849 74.4016 12.5969V17.7449H72.8484V5.14492H74.4016V6.69292C75.1749 5.50492 76.2996 4.91092 77.7757 4.91092ZM77.5793 12.8669C78.4719 12.8669 79.2217 12.5609 79.8287 11.9489C80.4357 11.3129 80.7391 10.5449 80.7391 9.64492C80.7391 8.7329 80.4357 7.97092 79.8287 7.35892C79.2217 6.7349 78.4719 6.42292 77.5793 6.42292C76.6745 6.42292 75.919 6.7349 75.312 7.35892C74.7051 7.97092 74.4016 8.7329 74.4016 9.64492C74.4016 10.5449 74.7051 11.3129 75.312 11.9489C75.919 12.5609 76.6745 12.8669 77.5793 12.8669ZM89.7692 14.3249V17.7449H88.234V14.3249C86.8415 14.1689 85.7289 13.6589 84.8956 12.7949C84.0622 11.9429 83.6459 10.8929 83.6459 9.64492C83.6459 8.39694 84.0622 7.3469 84.8956 6.49492C85.7289 5.63092 86.8415 5.12092 88.234 4.96492V1.54492H89.7692V4.96492C91.1617 5.12092 92.2743 5.63092 93.1076 6.49492C93.941 7.3469 94.3573 8.39694 94.3573 9.64492C94.3573 10.8929 93.941 11.9429 93.1076 12.7949C92.2743 13.6589 91.1617 14.1689 89.7692 14.3249ZM85.1812 9.64492C85.1812 10.4849 85.449 11.1929 85.9845 11.7689C86.5322 12.3329 87.282 12.6809 88.234 12.8129V6.47692C87.2935 6.59694 86.5501 6.94492 86.0024 7.52092C85.4547 8.0849 85.1812 8.79294 85.1812 9.64492ZM89.7692 6.47692V12.8129C90.7097 12.6809 91.4474 12.3329 91.9829 11.7689C92.5306 11.1929 92.8042 10.4849 92.8042 9.64492C92.8042 8.8049 92.5306 8.1029 91.9829 7.53892C91.4474 6.96292 90.7097 6.6089 89.7692 6.47692Z" fill="#4B4B4B"/>
<path d="M39.2666 2.69655L42.5514 1.54455H43.9796V14.1445H42.3372V3.34455L39.6772 4.13655L39.2666 2.69655ZM54.5562 12.5965C53.7231 13.7845 52.5389 14.3785 51.0036 14.3785C49.4683 14.3785 48.284 13.7845 47.4509 12.5965C46.6059 11.3965 46.1834 9.81253 46.1834 7.84455C46.1834 5.87655 46.6059 4.29255 47.4509 3.09255C48.284 1.90455 49.4683 1.31055 51.0036 1.31055C52.5389 1.31055 53.7231 1.90455 54.5562 3.09255C55.4012 4.29255 55.8237 5.87655 55.8237 7.84455C55.8237 9.81253 55.4012 11.3965 54.5562 12.5965ZM47.8437 7.84455C47.8437 9.40457 48.1174 10.6106 48.6649 11.4625C49.2123 12.3145 49.9919 12.7405 51.0036 12.7405C52.0152 12.7405 52.7947 12.3145 53.3422 11.4625C53.9016 10.6106 54.1813 9.40457 54.1813 7.84455C54.1813 6.28454 53.9016 5.07854 53.3422 4.22655C52.7947 3.36255 52.0152 2.93055 51.0036 2.93055C49.9919 2.93055 49.2123 3.35655 48.6649 4.20855C48.1174 5.06054 47.8437 6.27255 47.8437 7.84455ZM65.8007 12.5965C64.9681 13.7845 63.7841 14.3785 62.2484 14.3785C60.7131 14.3785 59.529 13.7845 58.6958 12.5965C57.8508 11.3965 57.4283 9.81253 57.4283 7.84455C57.4283 5.87655 57.8508 4.29255 58.6958 3.09255C59.529 1.90455 60.7131 1.31055 62.2484 1.31055C63.7841 1.31055 64.9681 1.90455 65.8007 3.09255C66.6462 4.29255 67.0689 5.87655 67.0689 7.84455C67.0689 9.81253 66.6462 11.3965 65.8007 12.5965ZM59.0886 7.84455C59.0886 9.40457 59.3623 10.6106 59.9098 11.4625C60.4573 12.3145 61.2368 12.7405 62.2484 12.7405C63.2601 12.7405 64.0397 12.3145 64.5874 11.4625C65.1466 10.6106 65.4265 9.40457 65.4265 7.84455C65.4265 6.28454 65.1466 5.07854 64.5874 4.22655C64.0397 3.36255 63.2601 2.93055 62.2484 2.93055C61.2368 2.93055 60.4573 3.35655 59.9098 4.20855C59.3623 5.06054 59.0886 6.27255 59.0886 7.84455Z" fill="#DC3545"/>
</g>
</svg>
