<svg width="210" height="28" viewBox="0 0 210 28" fill="none" xmlns="http://www.w3.org/2000/svg">
<g clip-path="url(#clip0_529_51)">
<path d="M8.428 22.364C6.31867 22.364 4.564 21.664 3.164 20.264C1.764 18.8453 1.064 17.0907 1.064 15C1.064 12.9093 1.764 11.164 3.164 9.764C4.564 8.34533 6.31867 7.636 8.428 7.636C9.80933 7.636 11.0507 7.972 12.152 8.644C13.2533 9.29733 14.0747 10.184 14.616 11.304L12.572 12.48C12.2173 11.7333 11.6667 11.136 10.92 10.688C10.192 10.24 9.36133 10.016 8.428 10.016C7.028 10.016 5.852 10.492 4.9 11.444C3.96667 12.4147 3.5 13.6 3.5 15C3.5 16.3813 3.96667 17.5573 4.9 18.528C5.852 19.48 7.028 19.956 8.428 19.956C9.36133 19.956 10.2013 19.7413 10.948 19.312C11.6947 18.864 12.264 18.2667 12.656 17.52L14.728 18.724C14.112 19.844 13.244 20.7307 12.124 21.384C11.004 22.0373 9.772 22.364 8.428 22.364ZM28.5338 10.408V8H30.9698V22H28.5338V19.592C27.3391 21.44 25.5751 22.364 23.2418 22.364C21.2631 22.364 19.5924 21.6547 18.2298 20.236C16.8484 18.7987 16.1578 17.0533 16.1578 15C16.1578 12.9653 16.8484 11.2293 18.2298 9.792C19.6111 8.35467 21.2818 7.636 23.2418 7.636C25.5751 7.636 27.3391 8.56 28.5338 10.408ZM23.5498 20.012C24.9684 20.012 26.1538 19.536 27.1058 18.584C28.0578 17.5947 28.5338 16.4 28.5338 15C28.5338 13.5813 28.0578 12.396 27.1058 11.444C26.1538 10.4733 24.9684 9.988 23.5498 9.988C22.1498 9.988 20.9738 10.4733 20.0218 11.444C19.0698 12.396 18.5938 13.5813 18.5938 15C18.5938 16.4 19.0698 17.5947 20.0218 18.584C20.9738 19.536 22.1498 20.012 23.5498 20.012ZM44.5165 5.9H36.9565V3.772H44.5165V5.9ZM37.0685 17.828L44.8245 8H46.7845V22H44.3765V12.172L36.6205 22H34.6605V8H37.0685V17.828ZM48.9245 8H60.9085V10.352H56.1485V22H53.7125V10.352H48.9245V8ZM108.99 22.308C108.486 22.308 108.056 22.1307 107.702 21.776C107.347 21.4213 107.17 20.992 107.17 20.488C107.17 19.984 107.347 19.5547 107.702 19.2C108.056 18.8453 108.486 18.668 108.99 18.668C109.512 18.668 109.942 18.8453 110.278 19.2C110.632 19.5547 110.81 19.984 110.81 20.488C110.81 20.992 110.632 21.4213 110.278 21.776C109.942 22.1307 109.512 22.308 108.99 22.308ZM121.986 7.636C123.946 7.636 125.617 8.35467 126.998 9.792C128.379 11.2293 129.07 12.9653 129.07 15C129.07 17.0533 128.379 18.7987 126.998 20.236C125.635 21.6547 123.965 22.364 121.986 22.364C119.671 22.364 117.907 21.44 116.694 19.592V27.6H114.258V8H116.694V10.408C117.907 8.56 119.671 7.636 121.986 7.636ZM121.678 20.012C123.078 20.012 124.254 19.536 125.206 18.584C126.158 17.5947 126.634 16.4 126.634 15C126.634 13.5813 126.158 12.396 125.206 11.444C124.254 10.4733 123.078 9.988 121.678 9.988C120.259 9.988 119.074 10.4733 118.122 11.444C117.17 12.396 116.694 13.5813 116.694 15C116.694 16.4 117.17 17.5947 118.122 18.584C119.074 19.536 120.259 20.012 121.678 20.012ZM140.797 22.28V27.6H138.389V22.28C136.205 22.0373 134.46 21.244 133.153 19.9C131.846 18.5747 131.193 16.9413 131.193 15C131.193 13.0587 131.846 11.4253 133.153 10.1C134.46 8.756 136.205 7.96267 138.389 7.72V2.4H140.797V7.72C142.981 7.96267 144.726 8.756 146.033 10.1C147.34 11.4253 147.993 13.0587 147.993 15C147.993 16.9413 147.34 18.5747 146.033 19.9C144.726 21.244 142.981 22.0373 140.797 22.28ZM133.601 15C133.601 16.3067 134.021 17.408 134.861 18.304C135.72 19.1813 136.896 19.7227 138.389 19.928V10.072C136.914 10.2587 135.748 10.8 134.889 11.696C134.03 12.5733 133.601 13.6747 133.601 15ZM140.797 10.072V19.928C142.272 19.7227 143.429 19.1813 144.269 18.304C145.128 17.408 145.557 16.3067 145.557 15C145.557 13.6933 145.128 12.6013 144.269 11.724C143.429 10.828 142.272 10.2773 140.797 10.072Z" fill="#EBEBEB"/>
<path d="M61.5873 4.192L66.7393 2.4H68.9793V22H66.4033V5.2L62.2313 6.432L61.5873 4.192ZM85.5678 19.592C84.2611 21.44 82.4038 22.364 79.9958 22.364C77.5878 22.364 75.7304 21.44 74.4238 19.592C73.0984 17.7253 72.4358 15.2613 72.4358 12.2C72.4358 9.13867 73.0984 6.67467 74.4238 4.808C75.7304 2.96 77.5878 2.036 79.9958 2.036C82.4038 2.036 84.2611 2.96 85.5678 4.808C86.8931 6.67467 87.5558 9.13867 87.5558 12.2C87.5558 15.2613 86.8931 17.7253 85.5678 19.592ZM75.0398 12.2C75.0398 14.6267 75.4691 16.5027 76.3278 17.828C77.1864 19.1533 78.4091 19.816 79.9958 19.816C81.5824 19.816 82.8051 19.1533 83.6638 17.828C84.5411 16.5027 84.9798 14.6267 84.9798 12.2C84.9798 9.77333 84.5411 7.89733 83.6638 6.572C82.8051 5.228 81.5824 4.556 79.9958 4.556C78.4091 4.556 77.1864 5.21867 76.3278 6.544C75.4691 7.86933 75.0398 9.75467 75.0398 12.2ZM103.204 19.592C101.898 21.44 100.041 22.364 97.6325 22.364C95.2245 22.364 93.3672 21.44 92.0605 19.592C90.7352 17.7253 90.0725 15.2613 90.0725 12.2C90.0725 9.13867 90.7352 6.67467 92.0605 4.808C93.3672 2.96 95.2245 2.036 97.6325 2.036C100.041 2.036 101.898 2.96 103.204 4.808C104.53 6.67467 105.193 9.13867 105.193 12.2C105.193 15.2613 104.53 17.7253 103.204 19.592ZM92.6765 12.2C92.6765 14.6267 93.1058 16.5027 93.9645 17.828C94.8232 19.1533 96.0458 19.816 97.6325 19.816C99.2192 19.816 100.442 19.1533 101.301 17.828C102.178 16.5027 102.617 14.6267 102.617 12.2C102.617 9.77333 102.178 7.89733 101.301 6.572C100.442 5.228 99.2192 4.556 97.6325 4.556C96.0458 4.556 94.8232 5.21867 93.9645 6.544C93.1058 7.86933 92.6765 9.75467 92.6765 12.2Z" fill="#DC3545"/>
</g>
<defs>
<clipPath id="clip0_529_51">
<rect width="210" height="28" fill="white"/>
</clipPath>
</defs>
</svg>
