<svg width="66" height="66" viewBox="0 0 66 66" fill="none" xmlns="http://www.w3.org/2000/svg">
<path d="M54.5 46.1C53.9 46.1 53.5 45.7 53.5 45.1V5.2C53.5 3.9 52.6 3 51.3 3H14.7C13.4 3 12.5 3.9 12.5 5.2V45.1C12.5 45.7 12.1 46.1 11.5 46.1C10.9 46.1 10.5 45.7 10.5 45.1V5.2C10.5 2.8 12.3 1 14.7 1H51.3C53.7 1 55.5 2.8 55.5 5.2V45.1C55.5 45.7 55.1 46.1 54.5 46.1Z" fill="#DC3545"/>
<path d="M54.5 10.1H11.5C10.9 10.1 10.5 9.69998 10.5 9.09998C10.5 8.49998 10.9 8.09998 11.5 8.09998H54.5C55.1 8.09998 55.5 8.49998 55.5 9.09998C55.5 9.69998 55.1 10.1 54.5 10.1Z" fill="#DC3545"/>
<path d="M60 51.8H6C3.2 51.8 1 49.6 1 46.8V15.9C1 13.1 3.2 10.9 6 10.9H11.5C12.1 10.9 12.5 11.3 12.5 11.9C12.5 12.5 12.1 12.9 11.5 12.9H6C4.3 12.9 3 14.2 3 15.9V46.8C3 48.5 4.3 49.8 6 49.8H60C61.7 49.8 63 48.5 63 46.8V15.9C63 14.2 61.7 12.9 60 12.9H54.5C53.9 12.9 53.5 12.5 53.5 11.9C53.5 11.3 53.9 10.9 54.5 10.9H60C62.8 10.9 65 13.1 65 15.9V46.8C65 49.6 62.8 51.8 60 51.8Z" fill="#DC3545"/>
<path d="M59.8996 46.1H6.09961C5.49961 46.1 5.09961 45.7 5.09961 45.1V16C5.09961 15.4 5.49961 15 6.09961 15H11.1996C11.7996 15 12.1996 15.4 12.1996 16C12.1996 16.6 11.7996 17 11.1996 17H7.09961V44.1H58.8996V17H54.4996C53.8996 17 53.4996 16.6 53.4996 16C53.4996 15.4 53.8996 15 54.4996 15H59.8996C60.4996 15 60.8996 15.4 60.8996 16V45.1C60.8996 45.7 60.4996 46.1 59.8996 46.1Z" fill="#DC3545"/>
<path d="M39.8996 58.3H26.0996C25.4996 58.3 25.0996 57.9 25.0996 57.3V50.8C25.0996 50.2 25.4996 49.8 26.0996 49.8H39.8996C40.4996 49.8 40.8996 50.2 40.8996 50.8V57.3C40.8996 57.9 40.4996 58.3 39.8996 58.3ZM27.0996 56.3H38.8996V51.8H27.0996V56.3Z" fill="#DC3545"/>
<path d="M45.6998 65H20.2998C19.6998 65 19.2998 64.6 19.2998 64C19.2998 59.8 22.7998 56.3 26.9998 56.3H38.9998C43.1998 56.3 46.6998 59.8 46.6998 64C46.6998 64.6 46.2998 65 45.6998 65ZM21.3998 63H44.5998C44.0998 60.3 41.7998 58.3 38.9998 58.3H26.9998C24.1998 58.3 21.8998 60.3 21.3998 63Z" fill="#DC3545"/>
<path d="M34.5 49H31.5C30.9 49 30.5 48.6 30.5 48C30.5 47.4 30.9 47 31.5 47H34.5C35.1 47 35.5 47.4 35.5 48C35.5 48.6 35.1 49 34.5 49Z" fill="#DC3545"/>
<path d="M28.0998 26.3H19.0998C17.1998 26.3 15.7998 24.9 15.7998 23V15.6C15.7998 13.7 17.1998 12.3 19.0998 12.3H28.0998C29.9998 12.3 31.3998 13.7 31.3998 15.6V23C31.3998 24.9 29.9998 26.3 28.0998 26.3ZM19.0998 14.3C18.2998 14.3 17.7998 14.8 17.7998 15.6V23C17.7998 23.8 18.2998 24.3 19.0998 24.3H28.0998C28.8998 24.3 29.3998 23.8 29.3998 23V15.6C29.3998 14.8 28.8998 14.3 28.0998 14.3H19.0998Z" fill="#DC3545"/>
<path d="M30.3998 18.2001H16.7998C16.1998 18.2001 15.7998 17.8001 15.7998 17.2001C15.7998 16.6001 16.1998 16.2001 16.7998 16.2001H30.3998C30.9998 16.2001 31.3998 16.6001 31.3998 17.2001C31.3998 17.8001 30.9998 18.2001 30.3998 18.2001Z" fill="#DC3545"/>
<path d="M26.2002 26.3001C25.6002 26.3001 25.2002 25.9001 25.2002 25.3001V17.2001C25.2002 16.6001 25.6002 16.2001 26.2002 16.2001C26.8002 16.2001 27.2002 16.6001 27.2002 17.2001V25.3001C27.2002 25.9001 26.8002 26.3001 26.2002 26.3001Z" fill="#DC3545"/>
<path d="M46.8996 26.3H37.8996C35.9996 26.3 34.5996 24.9 34.5996 23V15.6C34.5996 13.7 36.0996 12.3 37.8996 12.3H46.8996C48.7996 12.3 50.1996 13.7 50.1996 15.6V23C50.1996 24.9 48.7996 26.3 46.8996 26.3ZM37.8996 14.3C37.0996 14.3 36.5996 14.8 36.5996 15.6V23C36.5996 23.8 37.0996 24.3 37.8996 24.3H46.8996C47.6996 24.3 48.1996 23.8 48.1996 23V15.6C48.1996 14.8 47.6996 14.3 46.8996 14.3H37.8996Z" fill="#DC3545"/>
<path d="M49.1996 18.2001H35.5996C34.9996 18.2001 34.5996 17.8001 34.5996 17.2001C34.5996 16.6001 34.9996 16.2001 35.5996 16.2001H49.1996C49.7996 16.2001 50.1996 16.6001 50.1996 17.2001C50.1996 17.8001 49.7996 18.2001 49.1996 18.2001Z" fill="#DC3545"/>
<path d="M39.7998 26.3001C39.1998 26.3001 38.7998 25.9001 38.7998 25.3001V17.2001C38.7998 16.6001 39.1998 16.2001 39.7998 16.2001C40.3998 16.2001 40.7998 16.6001 40.7998 17.2001V25.3001C40.7998 25.9001 40.3998 26.3001 39.7998 26.3001Z" fill="#DC3545"/>
<path d="M28.0998 42.1H19.0998C17.1998 42.1 15.7998 40.7 15.7998 38.8V31.4C15.7998 29.5 17.1998 28.1 19.0998 28.1H28.0998C29.9998 28.1 31.3998 29.5 31.3998 31.4V38.8C31.3998 40.6 29.8998 42.1 28.0998 42.1ZM19.0998 30.1C18.2998 30.1 17.7998 30.6 17.7998 31.4V38.8C17.7998 39.6 18.2998 40.1 19.0998 40.1H28.0998C28.6998 40.1 29.3998 39.6 29.3998 38.8V31.4C29.3998 30.6 28.8998 30.1 28.0998 30.1H19.0998Z" fill="#DC3545"/>
<path d="M21 42.1C20.4 42.1 20 41.7 20 41.1V29.1C20 28.5 20.4 28.1 21 28.1C21.6 28.1 22 28.5 22 29.1V41.1C22 41.7 21.6 42.1 21 42.1Z" fill="#DC3545"/>
<path d="M46.8996 42.1H37.8996C35.9996 42.1 34.5996 40.7 34.5996 38.8V31.4C34.5996 29.5 36.0996 28.1 37.8996 28.1H46.8996C48.7996 28.1 50.1996 29.5 50.1996 31.4V38.8C50.1996 40.7 48.7996 42.1 46.8996 42.1ZM37.8996 30.1C37.0996 30.1 36.5996 30.6 36.5996 31.4V38.8C36.5996 39.6 37.0996 40.1 37.8996 40.1H46.8996C47.6996 40.1 48.1996 39.6 48.1996 38.8V31.4C48.1996 30.6 47.6996 30.1 46.8996 30.1H37.8996Z" fill="#DC3545"/>
<path d="M49.1996 34H35.5996C34.9996 34 34.5996 33.6 34.5996 33C34.5996 32.4 34.9996 32 35.5996 32H49.1996C49.7996 32 50.1996 32.4 50.1996 33C50.1996 33.6 49.7996 34 49.1996 34Z" fill="#DC3545"/>
<path d="M34.2998 6.5H17.2998C16.6998 6.5 16.2998 6.1 16.2998 5.5C16.2998 4.9 16.6998 4.5 17.2998 4.5H34.2998C34.8998 4.5 35.2998 4.9 35.2998 5.5C35.2998 6.1 34.8998 6.5 34.2998 6.5Z" fill="#DC3545"/>
<path d="M48.7 6.5H46C45.4 6.5 45 6.1 45 5.5C45 4.9 45.4 4.5 46 4.5H48.7C49.3 4.5 49.7 4.9 49.7 5.5C49.7 6.1 49.3 6.5 48.7 6.5Z" fill="#DC3545"/>
<path d="M41.5 6.5H39C38.4 6.5 38 6.1 38 5.5C38 4.9 38.4 4.5 39 4.5H41.5C42.1 4.5 42.5 4.9 42.5 5.5C42.5 6.1 42.1 6.5 41.5 6.5Z" fill="#DC3545"/>
</svg>
