<svg width="70" height="70" viewBox="0 0 70 70" fill="none" xmlns="http://www.w3.org/2000/svg">
<path d="M68.6328 62.8906H65.625V21.5054C65.625 19.6961 64.153 18.2241 62.3438 18.2241H57.6953C55.8861 18.2241 54.4141 19.6961 54.4141 21.5054V62.8906H48.9453V30.5288C48.9453 28.7195 47.4733 27.2476 45.6641 27.2476H41.0156C39.2064 27.2476 37.7344 28.7195 37.7344 30.5288V62.8906H32.2656V26.7968C32.2656 24.9875 30.7936 23.5156 28.9844 23.5156H24.3359C22.5267 23.5156 21.0547 24.9875 21.0547 26.7968V62.8906H15.5859V35.8203C15.5859 34.0109 14.1139 32.539 12.3047 32.539H7.65625C5.847 32.539 4.375 34.0109 4.375 35.8203V62.8906H1.36719C0.763168 62.8906 0.273438 63.3802 0.273438 63.9843C0.273438 64.5884 0.763168 65.0781 1.36719 65.0781H5.46875H14.4922H22.1484H31.1719H38.8281H47.8516H55.5078H64.5312H68.6328C70.0523 65.0988 70.0516 62.8697 68.6328 62.8906ZM6.5625 62.8906V35.8203C6.5625 35.2172 7.05317 34.7265 7.65625 34.7265H12.3047C12.9078 34.7265 13.3984 35.2172 13.3984 35.8203V62.8906H6.5625ZM23.2422 62.8906V26.7968C23.2422 26.1937 23.7329 25.7031 24.3359 25.7031H28.9844C29.5875 25.7031 30.0781 26.1937 30.0781 26.7968V62.8906H23.2422ZM39.9219 62.8906V30.5288C39.9219 29.9257 40.4125 29.4351 41.0156 29.4351H45.6641C46.2671 29.4351 46.7578 29.9257 46.7578 30.5288V62.8906H39.9219ZM56.6016 62.8906V21.5054C56.6016 20.9023 57.0922 20.4116 57.6953 20.4116H62.3438C62.9468 20.4116 63.4375 20.9023 63.4375 21.5054V62.8906H56.6016Z" fill="#DC3545"/>
<path d="M8.88672 23.5449V25.2373C8.88672 25.8414 9.37645 26.3311 9.98047 26.3311C10.5845 26.3311 11.0742 25.8414 11.0742 25.2373V24.1936L25.5756 16.3486C25.642 16.889 26.1018 17.3076 26.6602 17.3076C27.2642 17.3076 27.7539 16.818 27.7539 16.2139V15.8838L42.2461 19.1264V19.9459C42.2461 20.55 42.7358 21.0396 43.3398 21.0396C43.9439 21.0396 44.4336 20.55 44.4336 19.9459V18.9021L58.9349 11.0572C59.0014 11.5975 59.4612 12.0162 60.0195 12.0162C60.6236 12.0162 61.1133 11.5265 61.1133 10.9224V9.23166C61.1133 9.22901 61.1133 9.22638 61.1133 9.22374V7.53125C61.1133 6.92716 60.6236 6.4375 60.0195 6.4375C59.4155 6.4375 58.9258 6.92716 58.9258 7.53125V8.57507L44.4244 16.42C44.358 15.8796 43.8982 15.4609 43.3398 15.4609C42.7358 15.4609 42.2461 15.9506 42.2461 16.5547V16.8848L27.7539 13.6422V12.8228C27.7539 12.2187 27.2642 11.729 26.6602 11.729C26.0561 11.729 25.5664 12.2187 25.5664 12.8228V13.8665L11.0651 21.7115C10.9986 21.1711 10.5388 20.7524 9.98047 20.7524C9.37645 20.7524 8.88672 21.2421 8.88672 21.8462V23.537V23.5449Z" fill="#DC3545"/>
<path d="M64.6588 67.5752H5.46875C4.86473 67.5752 4.375 68.0649 4.375 68.6689C4.375 69.273 4.86473 69.7627 5.46875 69.7627H64.6588C65.2628 69.7627 65.7525 69.273 65.7525 68.6689C65.7525 68.0649 65.2628 67.5752 64.6588 67.5752Z" fill="#DC3545"/>
</svg>
