<svg width="70" height="70" viewBox="0 0 70 70" fill="none" xmlns="http://www.w3.org/2000/svg">
<g clip-path="url(#clip0_232_1815)">
<path d="M4.39961 25.6167H65.0535C66.3365 25.6167 67.5035 26.1422 68.3512 26.9888L68.3545 26.9932C69.201 27.8397 69.7266 29.0068 69.7266 30.2897V32.8573C69.7266 33.4359 69.4892 33.9642 69.1091 34.3448C68.7269 34.7271 68.2002 34.9644 67.6195 34.9644H1.83367C1.25289 34.9644 0.72625 34.7271 0.345625 34.3448L0.347266 34.3437C-0.0360937 33.9604 -0.273438 33.4326 -0.273438 32.8573V30.2897C-0.273438 29.003 0.252109 27.8348 1.09812 26.9888C1.94469 26.1422 3.11336 25.6167 4.39961 25.6167ZM65.0535 27.8042H4.39961C3.71766 27.8042 3.09531 28.0847 2.64578 28.5365C2.19406 28.986 1.91406 29.6078 1.91406 30.2897V32.7769H67.5391V30.2897C67.5391 29.6067 67.2602 28.9838 66.8106 28.5326C66.3595 28.0831 65.7388 27.8042 65.0535 27.8042Z" fill="#DC3545"/>
<path d="M27.4505 58.3849L29.1458 66.9358C29.1983 67.1983 29.3334 67.4198 29.5204 67.5729C29.7042 67.7239 29.9492 67.8125 30.2199 67.8125H34.7267H39.2351C39.5058 67.8125 39.7492 67.7239 39.9346 67.5729C40.1216 67.4193 40.2572 67.1983 40.3086 66.9358L42.005 58.3849L42.2353 57.9009L61.1139 34.9644H34.7267H8.34105L27.2197 57.9009L27.4505 58.3849ZM27.001 67.3531L25.3582 59.0696L5.18777 34.563L3.71777 32.7764H6.02941H34.7267H63.4261H65.7378L64.2678 34.563L44.0957 59.0696L42.4529 67.3531C42.3004 68.1253 41.8907 68.7859 41.3204 69.2551C40.7461 69.726 40.0193 70 39.2357 70H34.7267H30.2199C29.4346 70 28.7078 69.726 28.1352 69.2551C27.5648 68.7859 27.1536 68.1247 27.001 67.3531Z" fill="#DC3545"/>
<path d="M56.5188 11.8606C55.9933 11.5691 55.803 10.9047 56.0972 10.3775C56.3887 9.85247 57.0531 9.66161 57.5798 9.95583C59.0837 10.7904 60.3382 11.959 61.2072 13.3454C62.062 14.706 62.5498 16.2679 62.5498 17.9249V26.7115C62.5498 27.3147 62.0598 27.8047 61.4549 27.8047H40.6797C40.0754 27.8047 39.5859 27.3147 39.5859 26.7115V17.9243C39.5859 16.2673 40.0743 14.7054 40.9269 13.3448C41.797 11.9585 43.0515 10.7898 44.5554 9.95529C45.0809 9.66161 45.7448 9.85247 46.0385 10.3769C46.33 10.9041 46.1413 11.5686 45.6163 11.8601C44.4318 12.5179 43.4502 13.4301 42.7731 14.5069C42.1382 15.5208 41.774 16.6862 41.774 17.9243V25.6161H60.3612V17.9243C60.3612 16.6862 59.998 15.5203 59.3615 14.5069C58.6861 13.4307 57.7045 12.5179 56.5188 11.8606Z" fill="#DC3545"/>
<path d="M53.0861 11.9749C52.4736 12.3309 51.7917 12.5404 51.0665 12.5404C49.7092 12.5404 48.5006 11.8081 47.6201 10.7483C46.7129 9.65508 46.1436 8.18508 46.1436 6.83594V4.93117C46.1436 3.57656 46.697 2.34555 47.59 1.4525C48.482 0.556172 49.7141 0 51.0665 0C52.4189 0 53.6505 0.556172 54.543 1.45195C55.435 2.345 55.9895 3.57656 55.9895 4.93062V6.83594C55.9895 8.18563 55.4191 9.65508 54.5113 10.7483C54.1011 11.2416 53.6204 11.6643 53.0861 11.9749ZM52.9975 2.98977C52.5032 2.49539 51.8196 2.18695 51.0665 2.18695C50.3124 2.18695 49.6288 2.49484 49.1355 2.98977C48.6389 3.48633 48.3311 4.17484 48.3311 4.93062V6.83594C48.3311 7.69508 48.704 8.64281 49.2952 9.35539C49.7852 9.94492 50.4125 10.3512 51.0665 10.3512C51.7189 10.3512 52.3462 9.94492 52.8362 9.35539C53.4296 8.64227 53.802 7.69508 53.802 6.83594V4.93062C53.802 4.17484 53.4919 3.48633 52.9975 2.98977Z" fill="#DC3545"/>
<path d="M46.8301 26.711C46.8301 27.3148 46.3401 27.8042 45.7374 27.8042C45.1331 27.8042 44.6426 27.3142 44.6426 26.711V19.8428C44.6426 19.2396 45.1326 18.7496 45.7374 18.7496C46.3401 18.7496 46.8301 19.2396 46.8301 19.8428V26.711ZM57.4898 26.711C57.4898 27.3148 56.9998 27.8042 56.3955 27.8042C55.7912 27.8042 55.3023 27.3142 55.3023 26.711V19.8428C55.3023 19.2396 55.7912 18.7496 56.3955 18.7496C56.9998 18.7496 57.4898 19.2396 57.4898 19.8428V26.711Z" fill="#DC3545"/>
<path d="M23.8391 11.8606C23.3125 11.5691 23.1233 10.9047 23.4159 10.3775C23.709 9.85247 24.3734 9.66161 24.899 9.95583C26.4045 10.7904 27.6569 11.959 28.5275 13.3454C29.3823 14.706 29.869 16.2679 29.869 17.9249V26.7115C29.869 27.3147 29.379 27.8047 28.7758 27.8047H7.99891C7.3957 27.8047 6.90625 27.3147 6.90625 26.7115V17.9243C6.90625 16.2673 7.39242 14.7054 8.24664 13.3448C9.11727 11.9585 10.3718 10.7898 11.8757 9.95529C12.4007 9.66161 13.0652 9.85247 13.3588 10.3769C13.6503 10.9041 13.4616 11.5686 12.935 11.8601C11.7516 12.5179 10.7688 13.4301 10.0934 14.5069C9.45688 15.5208 9.0943 16.6862 9.0943 17.9243V25.6161H27.6815V17.9243C27.6815 16.6862 27.3184 15.5203 26.6818 14.5069C26.0064 13.4307 25.0226 12.5179 23.8391 11.8606Z" fill="#DC3545"/>
<path d="M18.3878 0C19.7408 0 20.9707 0.556172 21.8648 1.45195C22.7562 2.345 23.3108 3.57656 23.3108 4.93062V6.83594C23.3108 8.18563 22.7404 9.65508 21.8326 10.7483C20.9527 11.8087 19.7441 12.5404 18.3878 12.5404C17.031 12.5404 15.8219 11.8081 14.9414 10.7483C14.0341 9.65508 13.4648 8.18508 13.4648 6.83594V4.93117C13.4648 3.57656 14.0183 2.34555 14.9097 1.4525C15.8038 0.556172 17.0354 0 18.3878 0ZM20.3177 2.98977C19.8245 2.49539 19.1409 2.18695 18.3878 2.18695C17.6337 2.18695 16.9501 2.49484 16.4568 2.98977C15.9608 3.48633 15.6523 4.17484 15.6523 4.93062V6.83594C15.6523 7.69508 16.0231 8.64281 16.617 9.35539C17.107 9.94492 17.7338 10.3512 18.3878 10.3512C19.0402 10.3512 19.668 9.94492 20.1575 9.35539C20.7514 8.64227 21.1222 7.69508 21.1222 6.83594V4.93062C21.1222 4.17484 20.8143 3.48633 20.3177 2.98977Z" fill="#DC3545"/>
<path d="M14.1514 26.711C14.1514 27.3148 13.6614 27.8042 13.0571 27.8042C12.4539 27.8042 11.9639 27.3142 11.9639 26.711V19.8428C11.9639 19.2396 12.4539 18.7496 13.0571 18.7496C13.6614 18.7496 14.1514 19.2396 14.1514 19.8428V26.711ZM24.81 26.711C24.81 27.3148 24.3211 27.8042 23.7168 27.8042C23.1125 27.8042 22.6225 27.3142 22.6225 26.711V19.8428C22.6225 19.2396 23.1125 18.7496 23.7168 18.7496C24.3211 18.7496 24.81 19.2396 24.81 19.8428V26.711Z" fill="#DC3545"/>
<path d="M36.7896 38.4185C36.7896 37.8142 37.2796 37.3242 37.8828 37.3242C38.4871 37.3242 38.9771 37.8142 38.9771 38.4185V45.4382H42.5072C43.1115 45.4382 43.6015 45.9282 43.6015 46.5314C43.6015 46.8169 43.4927 47.0766 43.3133 47.2719L35.5679 56.6273C35.1846 57.0916 34.496 57.1561 34.0301 56.7722C33.9705 56.7224 33.9169 56.6677 33.8704 56.6098L26.1042 47.2281C25.7192 46.7633 25.7854 46.0759 26.2492 45.6898C26.4542 45.5219 26.7009 45.4398 26.9453 45.4398V45.4382H30.4754V38.4185C30.4754 37.8142 30.9654 37.3242 31.5703 37.3242C32.1751 37.3242 32.6646 37.8142 32.6646 38.4185V46.532C32.6646 47.1362 32.1746 47.6262 31.5703 47.6262H29.2696L34.7268 54.2177L40.1846 47.6262H37.8823C37.2791 47.6262 36.7891 47.1362 36.7891 46.532L36.7896 38.4185Z" fill="#DC3545"/>
</g>
<defs>
<clipPath id="clip0_232_1815">
<rect width="70" height="70" fill="white"/>
</clipPath>
</defs>
</svg>
