<svg width="40" height="40" viewBox="0 0 40 40" fill="none" xmlns="http://www.w3.org/2000/svg">
<circle cx="20" cy="20" r="20" fill="#8379FD"/>
<path d="M30.1807 10.6291C29.5269 10.0122 26.8805 8.04547 20.9802 8.0191C20.9802 8.0191 14.0244 7.59201 10.6366 10.7768C8.75223 12.7066 8.08806 15.5381 8.01598 19.0445C7.9439 22.5509 7.85637 29.1207 14.0398 30.9029H14.045L14.0398 33.6237C14.0398 33.6237 13.9987 34.7257 14.7092 34.9472C15.5638 35.2213 16.0684 34.383 16.887 33.4813C17.335 32.9857 17.9528 32.258 18.4213 31.7044C22.6535 32.0682 25.9022 31.2351 26.2729 31.1139C27.1276 30.8291 31.9621 30.1964 32.7447 23.6265C33.5582 16.8457 32.3534 12.5642 30.1807 10.6291ZM30.8964 23.1309C30.2322 28.6146 26.3141 28.9626 25.5933 29.1998C25.2844 29.3 22.4269 30.0277 18.8383 29.7904C18.8383 29.7904 16.1611 33.0964 15.327 33.9559C15.0541 34.2353 14.7555 34.209 14.7607 33.6553C14.7607 33.2915 14.7812 29.1366 14.7812 29.1366C14.7761 29.1366 14.7761 29.1366 14.7812 29.1366C9.53997 27.6496 9.84888 22.0552 9.90552 19.1288C9.96215 16.2025 10.5028 13.8033 12.0988 12.1899C14.9666 9.52712 20.8721 9.92257 20.8721 9.92257C25.861 9.94367 28.25 11.4833 28.8061 12C30.6441 13.6135 31.5812 17.4732 30.8964 23.1309ZM23.7398 18.8705C23.7604 19.3239 23.0962 19.3556 23.0757 18.9021C23.019 17.7421 22.4887 17.1779 21.3972 17.1146C20.9544 17.0883 20.9956 16.4081 21.4332 16.4345C22.8697 16.5135 23.6677 17.3572 23.7398 18.8705ZM24.785 19.4663C24.8365 17.2306 23.4721 15.4801 20.8823 15.285C20.4447 15.2534 20.4911 14.5732 20.9287 14.6048C23.9149 14.8263 25.5058 16.9301 25.4492 19.4821C25.444 19.9356 24.7747 19.9145 24.785 19.4663ZM27.2048 20.1728C27.21 20.6263 26.5407 20.6316 26.5407 20.1781C26.5098 15.8808 23.7141 13.5397 20.3211 13.5133C19.8835 13.5081 19.8835 12.8331 20.3211 12.8331C24.1157 12.8595 27.1688 15.5434 27.2048 20.1728ZM26.623 25.3454V25.356C26.067 26.3578 25.027 27.4651 23.9561 27.1118L23.9458 27.096C22.8594 26.7849 20.3006 25.4351 18.6839 24.1169C17.8498 23.442 17.0878 22.6458 16.5009 21.8812C15.9706 21.201 15.4351 20.3943 14.9151 19.4241C13.8185 17.3941 13.5765 16.4872 13.5765 16.4872C13.2315 15.3904 14.3076 14.3253 15.291 13.7559H15.3013C15.7749 13.5028 16.228 13.5872 16.5318 13.9615C16.5318 13.9615 17.1702 14.7419 17.4431 15.1268C17.7005 15.4854 18.0455 16.0601 18.2257 16.3817C18.5397 16.9565 18.3441 17.5417 18.0352 17.7843L17.4173 18.2905C17.1033 18.5488 17.1445 19.0287 17.1445 19.0287C17.1445 19.0287 18.0609 22.5772 21.4847 23.4736C21.4847 23.4736 21.9533 23.5158 22.2055 23.1941L22.6998 22.5614C22.9366 22.2451 23.5081 22.0447 24.0693 22.3663C24.8262 22.804 25.789 23.4842 26.4274 24.1011C26.7878 24.4016 26.8702 24.8603 26.623 25.3454Z" fill="white"/>
</svg>
